        <svg
            width="109"
            height="109"
            viewBox="0 0 109 109"
            fill="none"
            xmlns="http://www.w3.org/2000/svg"
        >
            <path
                d="M69.1665 62.7618V48.1228C69.1665 46.0888 68.1591 44.334 66.4036 43.3057C64.648 42.2791 62.6244 42.2615 60.8519 43.2577C59.4564 44.0427 58.0497 44.854 56.5623 45.7134C48.6864 50.2615 39.7669 55.4114 30.5924 57.3414H17.5472C9.63849 57.3414 3.20275 63.7764 3.20275 71.6851C3.20275 79.5939 9.63767 86.0296 17.5472 86.0296H19.6766L19.6774 100.325C19.6774 105.108 23.5694 109 28.3512 109H30.7716C31.743 109 32.5296 108.213 32.5296 107.242V86.3973C42.7998 88.5729 51.6768 93.8181 60.5991 99.4695C61.5217 100.054 62.5491 100.348 63.5806 100.348C64.5008 100.348 65.4234 100.114 66.2764 99.6456C68.0855 98.6494 69.1656 96.8218 69.1656 94.7574V80.9402C73.5761 80.2664 76.9656 76.4472 76.9656 71.8503C76.9664 67.254 73.5761 63.435 69.1656 62.7612L69.1665 62.7618ZM32.5325 60.5078C40.6494 58.5706 48.3678 54.4577 55.3745 50.4553V92.1407C48.2466 87.9718 40.8827 84.4575 32.5325 82.8108V60.5078ZM6.72235 71.6868C6.72235 65.7161 11.5794 60.8582 17.5509 60.8582H29.0188V82.5142H17.5509C11.5794 82.5142 6.72235 77.6572 6.72235 71.6864V71.6868ZM28.3558 105.484C25.5119 105.484 23.197 103.169 23.197 100.325V86.0317H29.019V105.484H28.3558ZM65.6514 94.7568C65.6514 95.5433 65.2713 96.1859 64.5832 96.5644C63.8934 96.9444 63.1485 96.9204 62.4835 96.4995C61.2873 95.7418 60.091 94.9904 58.8916 94.2534V48.4302C60.1607 47.6981 61.377 46.9971 62.5763 46.3234C63.2501 45.9433 63.9614 45.9497 64.6295 46.341C65.2976 46.7315 65.6513 47.3484 65.6513 48.123L65.6514 94.7568ZM69.1681 77.3565V66.3454C71.6271 66.9695 73.453 69.2005 73.453 71.8505C73.453 74.5005 71.627 76.7339 69.1681 77.3565ZM80.2737 60.917C79.8232 60.917 79.3743 60.745 79.031 60.4017C78.3437 59.7144 78.3437 58.6022 79.031 57.9147L82.7421 54.2036C83.4295 53.5163 84.5417 53.5179 85.2291 54.2036C85.9165 54.891 85.9165 56.0032 85.2291 56.6906L81.5188 60.4017C81.1739 60.745 80.7241 60.917 80.2737 60.917ZM92.3362 71.8521C92.3362 72.8235 91.5488 73.6101 90.5782 73.6101H85.33C84.3586 73.6101 83.572 72.8227 83.572 71.8521C83.572 70.8816 84.3594 70.0942 85.33 70.0942H90.5782C91.5505 70.0942 92.3362 70.8816 92.3362 71.8521ZM84.6458 86.7712C85.3332 87.4586 85.3332 88.5708 84.6458 89.2582C84.3025 89.6015 83.852 89.7735 83.4032 89.7735C82.9543 89.7735 82.5038 89.6015 82.1605 89.2582L78.4494 85.5471C77.762 84.8597 77.762 83.7475 78.4494 83.0601C79.1367 82.3743 80.249 82.3743 80.9364 83.0601L84.6458 86.7712ZM102.516 0H70.0442C66.4691 0 63.5606 2.90856 63.5606 6.48367V29.5448C63.5606 33.1199 66.4691 36.0285 70.0442 36.0285H71.8606V42.834C71.8606 43.5477 72.2911 44.1887 72.9512 44.4599C73.1673 44.5487 73.3937 44.5911 73.6178 44.5911C74.0787 44.5911 74.5316 44.4095 74.8692 44.0678L82.8093 36.0269H102.515C106.09 36.0269 108.999 33.1184 108.999 29.5433V6.48416C108.999 2.90905 106.09 0.00049561 102.515 0.00049561L102.516 0ZM105.483 29.5444C105.483 31.18 104.151 32.5122 102.515 32.5122H82.0757C81.606 32.5122 81.1555 32.701 80.8242 33.0355L75.3766 38.5527L75.3774 34.2703C75.3774 33.2989 74.59 32.5123 73.6195 32.5123H70.0452C68.4096 32.5123 67.0774 31.1808 67.0774 29.5446V6.4834C67.0774 4.84786 68.4089 3.51565 70.0452 3.51565H102.517C104.152 3.51565 105.485 4.84712 105.485 6.4834L105.485 29.5446L105.483 29.5444ZM100.922 25.6356C100.922 26.607 100.134 27.3936 99.1638 27.3936H73.3967C72.4253 27.3936 71.6387 26.6062 71.6387 25.6356C71.6387 24.6642 72.4261 23.8777 73.3967 23.8777H99.1638C100.134 23.8769 100.922 24.6642 100.922 25.6356ZM100.922 10.3925C100.922 11.3639 100.134 12.1504 99.1638 12.1504L73.3967 12.1496C72.4253 12.1496 71.6387 11.3623 71.6387 10.3917C71.6387 9.42027 72.4261 8.63371 73.3967 8.63371H99.1638C100.134 8.63451 100.922 9.42189 100.922 10.3925ZM100.922 18.0149C100.922 18.9863 100.134 19.7728 99.1638 19.7728L73.3967 19.772C72.4253 19.772 71.6387 18.9846 71.6387 18.0141C71.6387 17.0427 72.4261 16.2561 73.3967 16.2561H99.1638C100.134 16.2553 100.922 17.0427 100.922 18.0149ZM20.3245 47.6084C22.3609 47.6084 24.3669 47.3084 26.2952 46.7154L37.3014 49.6648C37.4519 49.7056 37.6047 49.7248 37.7567 49.7248C38.2168 49.7248 38.6657 49.5447 38.9994 49.2095C39.4443 48.7646 39.6171 48.1189 39.4547 47.5115L37.107 38.7504C39.4266 35.3664 40.6485 31.4209 40.6485 27.2839C40.6485 16.0768 31.5314 6.9597 20.3243 6.9597C9.11712 6.9597 0 16.0768 0 27.2839C0 38.4911 9.11712 47.6082 20.3243 47.6082L20.3245 47.6084ZM20.3245 10.4746C29.592 10.4746 37.1337 18.0147 37.1337 27.2838C37.1337 30.9461 35.9766 34.4268 33.7882 37.3483C33.4657 37.7796 33.3577 38.3365 33.4969 38.8574L35.2717 45.4812L26.7068 43.1855C26.5572 43.1463 26.4043 43.1255 26.2515 43.1255C26.0619 43.1255 25.873 43.1567 25.6914 43.2175C23.967 43.7968 22.1626 44.0921 20.3264 44.0921C11.0589 44.0921 3.5172 36.5521 3.5172 27.2829C3.5172 18.0163 11.0572 10.4746 20.3247 10.4746L20.3245 10.4746ZM9.16612 34.2425C9.16612 33.2711 9.95349 32.4845 10.9241 32.4845H29.7239C30.6953 32.4845 31.4818 33.2719 31.4818 34.2425C31.4818 35.2139 30.6945 36.0004 29.7239 36.0004L10.9255 35.9996C9.95411 36.0012 9.16612 35.2139 9.16612 34.2425ZM9.16612 20.3259C9.16612 19.3545 9.95349 18.5679 10.9241 18.5679H29.7239C30.6953 18.5679 31.4818 19.3553 31.4818 20.3259C31.4818 21.2973 30.6945 22.0838 29.7239 22.0838H10.9255C9.95411 22.0838 9.16612 21.2965 9.16612 20.3259ZM9.16612 27.2842C9.16612 26.3128 9.95349 25.5262 10.9241 25.5262H29.7239C30.6953 25.5262 31.4818 26.3136 31.4818 27.2842C31.4818 28.2548 30.6945 29.0421 29.7239 29.0421H10.9255C9.95411 29.0421 9.16612 28.2556 9.16612 27.2842Z"
                fill="#00CCFD"
            />
        </svg>