        <svg
            width="113"
            height="109"
            viewBox="0 0 113 109"
            fill="none"
            xmlns="http://www.w3.org/2000/svg"
        >
            <path
                d="M56.4933 0C52.5418 0 49.2261 2.77047 48.3345 6.45067H16.0209V2.34881C16.0252 1.27588 15.1563 0.403302 14.0804 0.398972H1.94052C0.864592 0.403309 -0.00434793 1.27588 1.63682e-05 2.34881V14.4548C0.00262582 15.5234 0.868934 16.389 1.94052 16.3933H14.0804C15.152 16.389 16.0183 15.5234 16.0209 14.4548V10.3418H39.3855C26.1245 16.6857 16.9984 30.1672 16.9984 45.8381V49.0751C13.3079 49.9633 10.5255 53.2707 10.5255 57.2111C10.5255 61.8255 14.3273 65.6167 18.9546 65.6167C23.5818 65.6167 27.3681 61.8255 27.3681 57.2111C27.3681 53.2653 24.5907 49.9546 20.8951 49.0718V45.839C20.8951 29.3494 32.0154 15.5985 47.2011 11.5462L48.5902 11.1784C49.7487 14.4336 52.8451 16.7946 56.494 16.7946C60.1429 16.7946 63.2429 14.4336 64.4056 11.1784L65.7834 11.5462C80.97 15.5994 92.105 29.3499 92.105 45.839V49.0718C88.41 49.9548 85.632 53.2665 85.632 57.2111C85.632 61.8255 89.4183 65.6167 94.0455 65.6167C98.6728 65.6167 102.459 61.8255 102.459 57.2111C102.459 53.2653 99.6817 49.9546 95.9861 49.0718V45.839C95.9861 30.1683 86.8612 16.6866 73.599 10.3427H96.9636V14.4557L96.9645 14.4548C96.9653 14.9709 97.1715 15.4653 97.5385 15.8287C97.9056 16.1921 98.4022 16.396 98.9198 16.3934H111.044C111.561 16.396 112.058 16.1921 112.425 15.8287C112.792 15.4653 112.999 14.9709 113 14.4548V2.34883C113.002 1.83101 112.796 1.33401 112.429 0.967965C112.061 0.601944 111.563 0.396374 111.044 0.398972H98.9198C98.4005 0.39637 97.9021 0.601935 97.535 0.967965C97.1671 1.33399 96.9618 1.83099 96.9644 2.34883V6.45069L64.6642 6.45155C63.77 2.77136 60.4458 0.000887697 56.4943 0.000887697L56.4933 0ZM56.4933 3.88581C59.0148 3.88581 61.0215 5.88769 61.0215 8.40134C61.0215 10.9158 59.014 12.9056 56.4933 12.9056C53.9718 12.9056 51.9765 10.9158 51.9765 8.40134C51.9765 5.88687 53.9718 3.88581 56.4933 3.88581ZM3.89684 4.28827H12.1391V8.22692C12.1304 8.33361 12.1304 8.4403 12.1391 8.54612V12.5039H3.89684V4.28827ZM100.864 4.28827H109.103V12.504H100.864V8.5349C100.87 8.45424 100.87 8.3727 100.864 8.29203V4.28827ZM56.5089 26.9547C56.4454 26.9539 56.3819 26.9565 56.3184 26.9617C55.6434 27.025 55.0502 27.4327 54.751 28.0398L31.7249 73.9479C31.4283 74.5472 31.4613 75.2568 31.8127 75.8257L41.8894 92.3067H39.2329C38.157 92.311 37.2881 93.1845 37.2924 94.2574V107.049C37.2881 108.122 38.157 108.996 39.2329 109H73.7509H73.7501C74.2702 109.002 74.7686 108.797 75.1357 108.43C75.5027 108.064 75.7089 107.567 75.7062 107.049V94.2574C75.7089 93.7396 75.5027 93.2417 75.1357 92.8757C74.7686 92.5097 74.2702 92.305 73.7501 92.3067H71.1094L81.1861 75.8257C81.5331 75.2542 81.5609 74.5447 81.26 73.9479L58.2339 28.0398C57.9095 27.3832 57.2432 26.9634 56.51 26.9548L56.5089 26.9547ZM54.5492 37.1211V63.7112C51.3771 64.5777 49.0121 67.4678 49.0121 70.8948C49.0121 74.9958 52.3809 78.3662 56.4933 78.3662C60.6058 78.3662 63.9857 74.9956 63.9857 70.8948C63.9857 67.4722 61.6189 64.5856 58.4486 63.7147V37.1447L77.2892 74.7238L66.5463 92.3087H46.4392L35.6963 74.7238L54.5492 37.1211ZM18.9535 52.7061C21.475 52.7061 23.4703 54.6959 23.4703 57.2103C23.4703 59.7248 21.475 61.7301 18.9535 61.7301C16.432 61.7301 14.4253 59.7247 14.4253 57.2103C14.4253 54.6959 16.4328 52.7061 18.9535 52.7061ZM94.0438 52.7061C96.5653 52.7061 98.5762 54.6959 98.5762 57.2103C98.5762 59.7248 96.5653 61.7301 94.0438 61.7301C91.5224 61.7301 89.5157 59.7247 89.5157 57.2103C89.5157 54.6959 91.5232 52.7061 94.0438 52.7061ZM56.4931 67.3083C58.4997 67.3083 60.0887 68.893 60.0887 70.8939C60.0887 72.8949 58.4996 74.4795 56.4931 74.4795C54.4865 74.4795 52.9122 72.8949 52.9122 70.8939C52.9122 68.893 54.4865 67.3083 56.4931 67.3083ZM41.1882 96.1943H71.8095V105.116H41.1882V96.1943Z"
                fill="#00CCFD"
            />
        </svg>