<svg
            width="110"
            height="110"
            viewBox="0 0 110 110"
            fill="none"
            xmlns="http://www.w3.org/2000/svg"
        >
            <path
                d="M97.5656 0H11.5377C8.47899 0.0032565 5.54574 1.21957 3.38259 3.38259C1.22028 5.54574 0.00312624 8.47815 0 11.5377V97.5885C0.0032565 100.647 1.22038 103.58 3.38259 105.743C5.54574 107.906 8.47899 109.122 11.5377 109.125H97.5656C100.623 109.122 103.555 107.906 105.717 105.742C107.877 103.579 109.091 100.646 109.091 97.5885V11.5377C109.088 8.48066 107.873 5.54991 105.712 3.38676C103.553 1.22444 100.622 0.0064609 97.5654 0H97.5656ZM11.5377 2.4318L97.5656 2.43098C99.9778 2.4375 102.289 3.39978 103.993 5.10621C105.698 6.81262 106.656 9.12551 106.659 11.5377V20.717L2.43263 20.7162V11.5377C2.43589 9.12303 3.39656 6.8092 5.10286 5.10206C6.81008 3.39484 9.12466 2.43413 11.5385 2.431L11.5377 2.4318ZM97.5656 106.696H11.5377C9.12383 106.693 6.80916 105.732 5.10202 104.025C3.39562 102.319 2.43492 100.004 2.4318 97.5902V23.1481H106.659V97.5902C106.655 100.002 105.697 102.315 103.992 104.021C102.288 105.727 99.9769 106.69 97.5647 106.696H97.5656Z"
                fill="#00CCFD"
            />
            <path
                d="M94.4519 16.9354C95.8701 16.9288 97.2272 16.3598 98.2261 15.3527C99.2242 14.3456 99.7827 12.9836 99.777 11.5654C99.7713 10.148 99.2039 8.79009 98.1976 7.79032C97.1914 6.79138 95.8294 6.23207 94.4119 6.23697C92.9937 6.24104 91.635 6.80849 90.6352 7.81312C89.6355 8.81856 89.0754 10.1797 89.0786 11.598C89.0851 13.0178 89.6542 14.3774 90.6613 15.378C91.6692 16.3786 93.032 16.9386 94.4519 16.9354ZM94.4519 8.68021C95.6299 8.68998 96.6867 9.40723 97.1305 10.4982C97.5742 11.5891 97.3193 12.8403 96.4824 13.67C95.6463 14.4996 94.3935 14.7447 93.3057 14.2912C92.2189 13.8386 91.5106 12.7761 91.5098 11.5981C91.5236 9.98285 92.8367 8.68021 94.4519 8.68021Z"
                fill="#00CCFD"
            />
            <path
                d="M80.6777 16.9354C82.0959 16.9288 83.453 16.3598 84.4511 15.3527C85.45 14.3456 86.0077 12.9836 86.0028 11.5654C85.9971 10.148 85.4288 8.79009 84.4226 7.79032C83.4163 6.79138 82.0552 6.23207 80.6369 6.23697C79.2187 6.24104 77.8608 6.80849 76.861 7.81312C75.8605 8.81856 75.3004 10.1797 75.3036 11.598C75.3101 13.0178 75.88 14.3774 76.8871 15.378C77.8942 16.3786 79.2578 16.9386 80.6777 16.9354ZM80.6777 8.68021C81.8557 8.68998 82.9117 9.40723 83.3563 10.4982C83.8 11.5891 83.5443 12.8403 82.7082 13.67C81.8713 14.4996 80.6184 14.7447 79.5315 14.2912C78.4439 13.8386 77.7356 12.7761 77.7356 11.5981C77.7388 10.8214 78.0506 10.0773 78.6026 9.53019C79.1538 8.9831 79.9002 8.67694 80.6777 8.68021Z"
                fill="#00CCFD"
            />
            <path
                d="M67.0619 16.9354C68.4793 16.9288 69.8371 16.3598 70.8352 15.3527C71.8342 14.3456 72.3919 12.9836 72.3861 11.5654C72.3813 10.148 71.813 8.79009 70.8067 7.79032C69.8005 6.79138 68.4393 6.23207 67.0211 6.23697C65.6029 6.24104 64.245 6.80849 63.2444 7.81312C62.2446 8.81856 61.6845 10.1797 61.6878 11.598C61.6943 13.0178 62.2633 14.3774 63.2712 15.378C64.2783 16.3786 65.6419 16.9386 67.0619 16.9354ZM67.0619 8.68021C68.2391 8.68998 69.2959 9.40723 69.7396 10.4982C70.1841 11.5891 69.9285 12.8403 69.0915 13.67C68.2554 14.4996 67.0026 14.7447 65.9149 14.2912C64.828 13.8386 64.1197 12.7761 64.1197 11.5981C64.123 10.8214 64.4348 10.0773 64.9859 9.53019C65.5379 8.9831 66.2844 8.67694 67.0619 8.68021Z"
                fill="#00CCFD"
            />
            <path
                d="M13.5928 16.9354H49.8092C51.6581 16.8475 53.3296 15.8103 54.2291 14.1926C55.1287 12.5758 55.1287 10.6089 54.2291 8.99119C53.3295 7.37434 51.6581 6.33722 49.8092 6.24927H13.5928C11.7439 6.33719 10.0724 7.37438 9.17287 8.99119C8.27327 10.6089 8.27327 12.5757 9.17287 14.1926C10.0725 15.8103 11.7439 16.8474 13.5928 16.9354ZM13.5928 8.68023H49.8092C51.3446 8.77955 52.539 10.0537 52.539 11.5924C52.539 13.1303 51.3447 14.4044 49.8092 14.5038H13.5928C12.0573 14.4045 10.8629 13.1304 10.8629 11.5924C10.8629 10.0537 12.0572 8.77965 13.5928 8.68023Z"
                fill="#00CCFD"
            />
            <path
                d="M37.5542 58.3563V43.7672C37.551 43.5807 37.6226 43.4016 37.7529 43.2689C37.8831 43.1362 38.0614 43.0621 38.2479 43.0621H43.8042H43.8034C44.9513 43.0621 45.8827 42.1308 45.8827 40.9828C45.8827 39.8349 44.9513 38.9036 43.8034 38.9036H38.2958C37.0063 38.9036 35.7696 39.4165 34.857 40.3283C33.9451 41.2401 33.4331 42.4775 33.4331 43.7671V57.4932L29.8704 61.055C29.4804 61.445 29.2606 61.9742 29.2606 62.5262C29.2606 63.0781 29.4804 63.6073 29.8704 63.9973L33.4322 67.5591L33.433 81.2364C33.433 82.5268 33.9451 83.7635 34.8569 84.6753C35.7696 85.5871 37.0061 86.1 38.2958 86.1H43.8522C44.9423 86.0161 45.7841 85.1076 45.7841 84.015C45.7841 82.9216 44.9423 82.0131 43.8522 81.93H38.2958C38.1029 81.9471 37.9115 81.8812 37.7699 81.7493C37.629 81.6166 37.5501 81.4301 37.5541 81.2364V66.6473C37.5533 66.0961 37.3351 65.5677 36.9468 65.1761L34.248 62.4774L36.9468 59.7907C37.3262 59.4088 37.5445 58.8944 37.5542 58.3563Z"
                fill="#00CCFD"
            />
            <path
                d="M78.7935 57.4934V43.7795C78.7935 42.4899 78.2814 41.2524 77.3696 40.3406C76.457 39.4288 75.2204 38.9159 73.9307 38.9159H68.3744C67.2265 38.9159 66.2959 39.8473 66.2959 40.9952C66.2959 42.1431 67.2264 43.0745 68.3744 43.0745H73.9307C74.1164 43.0745 74.2947 43.1485 74.4249 43.2812C74.5552 43.414 74.6268 43.5931 74.6236 43.7795V58.3686C74.6236 58.9222 74.8474 59.453 75.2439 59.8397L77.9306 62.5264L75.2439 65.2252C74.8588 65.6005 74.6366 66.111 74.6236 66.6475V81.2366C74.6268 81.4214 74.5552 81.5997 74.4241 81.7308C74.2938 81.861 74.1155 81.9335 73.9307 81.9302H68.3744C67.2851 82.0133 66.4433 82.9218 66.4433 84.0152C66.4433 85.1078 67.2851 86.0163 68.3744 86.1002H73.9307C75.2203 86.1002 76.4569 85.5873 77.3696 84.6755C78.2814 83.7637 78.7935 82.5269 78.7935 81.2366V67.5593L82.3553 63.9975H82.3561C82.7461 63.6075 82.9659 63.0784 82.9659 62.5264C82.9659 61.9744 82.7461 61.4452 82.3561 61.0553L78.7935 57.4934Z"
                fill="#00CCFD"
            />
        </svg>