<svg width="735" height="676" viewBox="0 0 735 676" fill="none" xmlns="http://www.w3.org/2000/svg">
<path d="M147.048 402.153C147.08 402.138 147.111 402.121 147.148 402.107L146.2 400.155C146.169 400.172 146.137 400.187 146.1 400.203L147.048 402.153ZM144.597 397.108C144.629 397.091 144.663 397.075 144.697 397.062L91.489 287.56V287.804L144.597 397.108Z" fill="#7D7B6D"/>
<path d="M113.789 457.055L146.24 426.407C146.214 426.381 146.19 426.356 146.167 426.33L113.716 456.978C113.741 457.005 113.765 457.031 113.789 457.057V457.055Z" fill="#7D7B6D"/>
<path d="M114.746 515.159L135.237 506.722L136.437 506.228C136.422 506.196 136.408 506.163 136.396 506.128L114.708 515.057C114.719 515.097 114.733 515.131 114.745 515.164L114.746 515.159ZM138.539 505.359L144.194 503.031C144.179 502.998 144.165 502.965 144.153 502.931L138.501 505.259C138.516 505.294 138.528 505.33 138.538 505.367L138.539 505.359Z" fill="#7D7B6D"/>
<path d="M200.151 87.009L200.238 86.948L149.873 14.198L149.786 14.259L200.151 87.009ZM91.4841 10.013L140.147 9.297C140.147 9.263 140.147 9.22701 140.147 9.19101L91.4861 9.907L91.4841 10.013Z" fill="#7D7B6D"/>
<path d="M149.242 310.141L156.566 280.85C156.53 280.845 156.494 280.84 156.46 280.833L149.14 310.116L149.242 310.141ZM157.859 275.676L168.864 231.656C168.829 231.651 168.794 231.644 168.759 231.636L157.759 275.642C157.789 275.652 157.823 275.664 157.857 275.676H157.859ZM169.413 229.457L173.006 215.089C172.97 215.08 172.936 215.07 172.906 215.06L169.315 229.424C169.342 229.435 169.379 229.445 169.411 229.457H169.413ZM173.558 212.879L195.232 126.179L195.132 126.157L173.458 212.857C173.491 212.863 173.524 212.87 173.556 212.879H173.558ZM196.632 120.585L197.346 117.727L197.246 117.701L196.532 120.556C196.562 120.564 196.596 120.574 196.63 120.584L196.632 120.585ZM198.662 112.464L200.017 107.048C199.98 107.048 199.944 107.053 199.906 107.053L198.559 112.439L198.662 112.464ZM200.537 104.964L202.265 98.051C202.231 98.044 202.197 98.036 202.165 98.025L200.446 104.905C200.472 104.926 200.504 104.945 200.535 104.966L200.537 104.964ZM197.96 89.807C197.972 89.775 197.986 89.742 197.999 89.707L91.487 47.107V47.221L143.162 67.89L197.96 89.807Z" fill="#7D7B6D"/>
<path d="M375.906 183.508L376.006 183.462L324.458 77.654C324.426 77.668 324.392 77.68 324.358 77.692L375.906 183.508ZM379.662 183.308L419.782 72.975C419.75 72.963 419.716 72.951 419.682 72.938L379.56 183.271L379.662 183.308ZM323.362 75.661C323.392 75.6408 323.423 75.6221 323.454 75.605L312.214 52.535C312.181 52.55 312.149 52.564 312.114 52.578L323.362 75.661ZM311.121 50.535L311.215 50.486L302.388 32.364C302.356 32.3822 302.322 32.3983 302.288 32.412L311.121 50.535ZM301.294 30.364C301.326 30.3467 301.359 30.3313 301.394 30.318L300.077 27.618L299.985 27.669L301.294 30.364Z" fill="#7D7B6D"/>
<path d="M458.272 613.327L473.686 536.256L473.586 536.236L458.172 613.303L458.272 613.327Z" fill="#7D7B6D"/>
<path d="M390.029 661.843L535.878 626.843C535.87 626.809 535.861 626.773 535.852 626.743L390.005 661.743C390.014 661.773 390.021 661.808 390.029 661.843ZM389.213 659.743L431.813 635.398L449.751 625.148C449.734 625.117 449.717 625.087 449.698 625.056L389.156 659.651C389.177 659.679 389.198 659.709 389.213 659.74V659.743Z" fill="#7D7B6D"/>
<path d="M535.706 625.148L535.711 625.041L464.626 621.487L464.621 621.593L535.706 625.148ZM463.324 616.761L496.347 594.744C496.328 594.715 496.308 594.686 496.289 594.655L463.264 616.672C463.284 616.701 463.303 616.732 463.324 616.761Z" fill="#7D7B6D"/>
<path d="M611.512 624.263C611.532 624.234 611.553 624.205 611.573 624.178L484.689 531.897C484.669 531.926 484.648 531.955 484.626 531.984L611.512 624.263ZM499.088 585.825C499.119 585.811 499.153 585.799 499.188 585.786L489.125 559.795L479.799 535.702L479.699 535.741L490.043 562.462L499.088 585.825Z" fill="#7D7B6D"/>
<path d="M610.713 625.885L610.744 625.785L587.882 618.585L507.015 593.127C507.006 593.161 506.994 593.195 506.984 593.227L507.703 593.455L610.713 625.885ZM537.073 621.585C537.095 621.558 537.117 621.53 537.141 621.503L505.904 595.196C505.88 595.223 505.856 595.25 505.834 595.278L528.134 614.055L537.073 621.585Z" fill="#7D7B6D"/>
<path d="M683.239 670.319C683.256 670.288 683.276 670.259 683.295 670.228L620.837 630.483L620.779 630.572L683.239 670.319ZM610.471 627.41C610.471 627.374 610.471 627.338 610.471 627.304L562.193 625.924L547.655 625.51C547.655 625.546 547.655 625.58 547.655 625.616L610.471 627.41Z" fill="#7D7B6D"/>
<path d="M604.823 160.643L663.361 11.27L663.267 11.221L604.724 160.604L604.823 160.643Z" fill="#7D7B6D"/>
<path d="M606.434 161.852L661.553 116.838L661.507 116.738L606.366 161.769C606.389 161.795 606.412 161.824 606.434 161.852ZM667.545 111.945L727.818 62.721L727.752 62.639L667.452 111.88C667.489 111.9 667.516 111.923 667.545 111.945Z" fill="#7D7B6D"/>
<path d="M484.409 446.126L541.764 400.579C541.74 400.553 541.718 400.526 541.696 400.497L484.343 446.042L484.409 446.126ZM545.535 397.584L552.381 392.147C552.359 392.118 552.338 392.091 552.318 392.062L545.47 397.499C545.495 397.526 545.517 397.555 545.537 397.584H545.535ZM557.868 387.791L611.768 344.991L611.701 344.907L557.796 387.714C557.824 387.736 557.848 387.761 557.87 387.79L557.868 387.791Z" fill="#7D7B6D"/>
<path d="M164.524 627.887L164.624 627.848L156.257 610.792C156.226 610.809 156.194 610.826 156.163 610.84L162.3 623.353L164.524 627.887ZM155.089 608.653C155.121 608.638 155.152 608.622 155.189 608.609L142.355 582.449C142.324 582.468 142.294 582.485 142.263 582.502L155.089 608.653ZM141.256 580.453C141.288 580.438 141.321 580.424 141.356 580.411L112.391 521.373L112.291 521.419L141.256 580.453Z" fill="#7D7B6D"/>
<path d="M108.632 458.921C108.666 458.911 108.7 458.9 108.732 458.888L91.4851 405.122V405.471L108.632 458.921Z" fill="#7D7B6D"/>
<path d="M91.4851 542.427L105.771 495.489L108.801 485.531L108.701 485.5L93.1301 536.668L91.488 542.061L91.4851 542.427ZM91.4851 503.672L107.104 484.646L107.022 484.578L91.4851 503.505V503.672Z" fill="#7D7B6D"/>
<path d="M91.4841 642.481L163.035 630.114C163.035 630.078 163.035 630.042 163.035 630.007L91.4829 642.374L91.4841 642.481ZM163.176 629.299C163.188 629.265 163.202 629.233 163.215 629.199L115.726 620.888L93.22 616.949C93.215 616.985 93.2079 617.019 93.2009 617.055L105.301 619.171L163.176 629.299Z" fill="#7D7B6D"/>
<path d="M502.927 151.987L503.032 151.978L493.305 21.641L493.198 21.648L502.927 151.987Z" fill="#7D7B6D"/>
<path d="M609.648 303.593C609.656 303.559 609.663 303.523 609.672 303.493L476.785 271.599L465.485 268.887C465.477 268.921 465.468 268.955 465.459 268.987L609.648 303.593ZM464.103 264.408L499.439 225.54C499.41 225.516 499.385 225.492 499.359 225.468L464.024 264.336L464.103 264.408Z" fill="#7D7B6D"/>
<path d="M618.306 250.412L618.255 250.312V250.324V250.399L618.306 250.412ZM618.24 250.279L605.149 224.093L605.049 224.141L618.1 250.238L618.24 250.279ZM599.359 220.359C599.359 220.325 599.359 220.289 599.366 220.253L509.393 214.509C509.393 214.545 509.388 214.581 509.386 214.616L599.359 220.359Z" fill="#7D7B6D"/>
<path d="M611.426 298.7C611.447 298.671 611.467 298.644 611.489 298.615L508.289 223.56C508.268 223.587 508.248 223.616 508.228 223.645L577.757 274.212L611.426 298.7ZM619.8 294.153L619.906 294.148L618.261 256.294V256.219V256.207V256.181L618.246 256.176L618.106 256.132L563.082 238.811L533.293 229.432C533.279 229.466 533.264 229.499 533.25 229.532L539.599 231.532L618.156 256.262L619.8 294.153ZM527.538 227.734C527.545 227.698 527.552 227.664 527.56 227.628L509.141 221.828C509.131 221.862 509.12 221.896 509.109 221.928L527.538 227.734Z" fill="#7D7B6D"/>
<path d="M304.708 341.163L374.864 265.158C374.837 265.134 374.811 265.11 374.786 265.086L349.739 292.221L304.628 341.09L304.708 341.163ZM456.3 277.788C456.307 277.754 456.314 277.718 456.322 277.688L382.615 262.569C382.608 262.605 382.601 262.639 382.593 262.669L456.3 277.788Z" fill="#7D7B6D"/>
<path d="M386.778 657.077L469.678 534.604C469.649 534.584 469.62 534.563 469.589 534.544L386.684 657.017L386.778 657.077Z" fill="#7D7B6D"/>
<path d="M465.951 448.693C465.966 448.661 465.982 448.63 465.999 448.593L402.853 417.02C402.841 417.054 402.829 417.088 402.815 417.12L465.951 448.693ZM474.674 442.639L474.779 442.629L468.049 373.408C468.013 373.408 467.977 373.408 467.942 373.408L474.674 442.639ZM399.634 415.539C399.651 415.508 399.67 415.478 399.69 415.449L354.39 392.8C354.376 392.834 354.361 392.865 354.346 392.9L399.634 415.539ZM350.228 390.839L350.279 390.745L305.707 368.459C305.692 368.491 305.676 368.524 305.659 368.559L350.228 390.839ZM467.271 366.516C467.305 366.508 467.341 366.499 467.371 366.492L461.411 305.179L461.306 305.189L464.348 336.479L467.271 366.516ZM305.843 364.665L335.66 352.336L456.594 302.349L456.553 302.249L305.804 364.557C305.816 364.593 305.83 364.625 305.844 364.658L305.843 364.665Z" fill="#7D7B6D"/>
<path d="M146.601 438.29L148.191 422.404L148.085 422.394L146.497 438.28C146.531 438.282 146.565 438.285 146.601 438.29Z" fill="#7D7B6D"/>
<path d="M165.106 627.73L165.211 627.716L146.711 504.394C146.676 504.401 146.64 504.406 146.605 504.409L149.805 525.727L165.106 627.73ZM148.48 501.279L227.38 468.855L297.168 440.174L297.127 440.074L148.443 501.174C148.454 501.208 148.468 501.241 148.48 501.275V501.279Z" fill="#7D7B6D"/>
<path d="M151.423 393.4L296.978 352.968C296.968 352.934 296.959 352.9 296.951 352.868L151.397 393.3C151.404 393.332 151.414 393.367 151.423 393.4ZM150.349 391.755L196.418 331.291C196.388 331.273 196.358 331.253 196.33 331.231L150.266 391.691C150.297 391.713 150.322 391.733 150.349 391.755ZM299.149 347.588L299.241 347.537L252.801 264.33L252.707 264.381L268.027 291.831L299.149 347.588ZM197.786 329.488L211.458 311.543C211.429 311.523 211.4 311.502 211.373 311.48L197.706 329.418C197.735 329.441 197.763 329.465 197.79 329.491L197.786 329.488ZM212.837 309.733L247.666 264.02L247.583 263.957L212.754 309.668C212.786 309.691 212.814 309.713 212.841 309.735L212.837 309.733Z" fill="#7D7B6D"/>
<path d="M379.517 656.161C379.55 656.147 379.583 656.135 379.617 656.125L351.95 578.95C351.918 578.962 351.883 578.974 351.85 578.984L379.517 656.161ZM166.66 628.029L214.251 561.102L298.811 442.191C298.782 442.172 298.753 442.15 298.724 442.13L166.567 627.976C166.599 627.993 166.63 628.01 166.66 628.029ZM350.96 576.498C350.992 576.484 351.026 576.472 351.06 576.46L350.185 574.021C350.154 574.038 350.122 574.053 350.085 574.069L350.96 576.498ZM348.47 569.554C348.503 569.543 348.536 569.534 348.57 569.528L346.929 564.947C346.897 564.961 346.863 564.976 346.829 564.988L348.47 569.554ZM345.208 560.454C345.242 560.444 345.276 560.434 345.308 560.425L342.751 553.29C342.717 553.302 342.683 553.312 342.651 553.321L345.208 560.454ZM341.029 548.794L341.129 548.753L303.124 442.737C303.092 442.749 303.057 442.763 303.024 442.773L341.029 548.794Z" fill="#7D7B6D"/>
<path d="M165.446 632.526C165.977 632.528 166.494 632.353 166.917 632.031C167.339 631.708 167.643 631.255 167.781 630.742C167.92 630.229 167.885 629.685 167.682 629.194C167.479 628.702 167.12 628.292 166.66 628.026C166.629 628.007 166.598 627.99 166.566 627.973C166.221 627.792 165.836 627.698 165.446 627.699C165.366 627.699 165.288 627.702 165.211 627.709L165.105 627.723C164.941 627.747 164.779 627.787 164.623 627.842L164.523 627.881C164.229 628.003 163.962 628.182 163.737 628.407C163.512 628.633 163.334 628.901 163.212 629.195C163.198 629.229 163.185 629.261 163.173 629.295C163.092 629.522 163.046 629.76 163.035 630.001C163.035 630.037 163.035 630.072 163.035 630.108C163.034 630.425 163.096 630.739 163.217 631.033C163.337 631.326 163.515 631.593 163.739 631.817C163.963 632.042 164.229 632.22 164.522 632.342C164.815 632.463 165.129 632.526 165.446 632.526Z" fill="#4C4A49"/>
<path d="M110.181 470.118C110.914 470.119 111.637 469.955 112.298 469.639L112.398 469.593C113.495 469.039 114.345 468.094 114.781 466.944C115.216 465.794 115.205 464.523 114.75 463.381C114.738 463.349 114.724 463.314 114.711 463.281C114.489 462.76 114.179 462.281 113.794 461.866C113.771 461.84 113.746 461.815 113.721 461.789C113.09 461.136 112.29 460.67 111.41 460.443C110.53 460.217 109.605 460.238 108.736 460.504C108.702 460.516 108.668 460.526 108.636 460.536C107.807 460.812 107.066 461.305 106.49 461.963C105.914 462.621 105.524 463.421 105.36 464.28C105.197 465.139 105.265 466.026 105.558 466.849C105.851 467.673 106.359 468.404 107.029 468.966L107.111 469.034C107.587 469.415 108.129 469.705 108.711 469.888L108.811 469.919C109.256 470.05 109.717 470.117 110.181 470.118Z" fill="#080E67"/>
<path d="M146.319 447.356C146.417 447.356 146.514 447.349 146.611 447.337C146.647 447.337 146.682 447.328 146.717 447.322C147.255 447.229 147.743 446.948 148.094 446.53C148.446 446.113 148.639 445.584 148.639 445.038C148.64 444.753 148.587 444.471 148.484 444.206C148.472 444.172 148.459 444.14 148.445 444.106C148.283 443.738 148.029 443.417 147.706 443.177C147.383 442.937 147.004 442.785 146.604 442.736C146.568 442.731 146.534 442.727 146.498 442.726C146.438 442.721 146.38 442.719 146.319 442.719C145.943 442.719 145.572 442.811 145.239 442.986C144.906 443.161 144.621 443.415 144.408 443.725C144.195 444.035 144.061 444.393 144.017 444.766C143.973 445.14 144.021 445.519 144.156 445.87C144.168 445.904 144.182 445.937 144.197 445.97C144.378 446.382 144.675 446.733 145.052 446.979C145.429 447.225 145.869 447.356 146.319 447.356Z" fill="#4C4A49"/>
<path d="M148.442 419.837C148.846 419.837 149.247 419.757 149.62 419.602C149.994 419.447 150.333 419.221 150.619 418.935C150.905 418.649 151.131 418.309 151.286 417.935C151.441 417.562 151.52 417.161 151.52 416.757C151.519 416.497 151.485 416.237 151.42 415.985C151.411 415.951 151.401 415.917 151.391 415.885C151.21 415.275 150.845 414.737 150.346 414.343C150.319 414.321 150.29 414.3 150.263 414.28C149.955 414.053 149.607 413.885 149.237 413.786L149.137 413.76C148.908 413.708 148.672 413.681 148.437 413.682C147.988 413.681 147.544 413.778 147.137 413.968C147.105 413.982 147.074 413.999 147.037 414.014C146.614 414.229 146.246 414.538 145.962 414.919C145.678 415.299 145.486 415.74 145.401 416.207C145.316 416.673 145.339 417.154 145.47 417.61C145.601 418.066 145.836 418.486 146.156 418.836L146.229 418.913C146.721 419.418 147.372 419.738 148.072 419.82L148.178 419.83C148.272 419.834 148.357 419.837 148.442 419.837Z" fill="#4C4A49"/>
<path d="M145.379 410.032C145.628 410.032 145.874 409.978 146.1 409.874C146.132 409.858 146.165 409.843 146.2 409.826C146.587 409.614 146.877 409.261 147.011 408.84C147.145 408.42 147.112 407.964 146.92 407.567C146.727 407.17 146.39 406.862 145.977 406.707C145.563 406.552 145.107 406.561 144.7 406.733C144.666 406.747 144.633 406.762 144.6 406.779C144.256 406.955 143.981 407.241 143.819 407.592C143.657 407.943 143.619 408.338 143.709 408.714C143.799 409.09 144.013 409.424 144.317 409.664C144.62 409.903 144.996 410.033 145.382 410.033L145.379 410.032Z" fill="#4C4A49"/>
<path d="M137.46 450.879C137.609 450.879 137.758 450.85 137.896 450.792C138.034 450.735 138.159 450.651 138.265 450.545C138.371 450.44 138.455 450.314 138.512 450.176C138.569 450.038 138.598 449.89 138.598 449.74C138.599 449.616 138.578 449.492 138.538 449.375C138.528 449.341 138.515 449.308 138.501 449.275C138.379 449.005 138.158 448.793 137.883 448.684C137.608 448.575 137.301 448.577 137.028 448.689C136.754 448.802 136.535 449.017 136.417 449.288C136.299 449.559 136.29 449.866 136.394 450.143C136.406 450.175 136.42 450.208 136.435 450.243C136.53 450.434 136.676 450.595 136.857 450.707C137.038 450.82 137.247 450.879 137.46 450.879Z" fill="#4C4A49"/>
<path d="M141.744 582.622C141.924 582.622 142.1 582.58 142.26 582.499C142.291 582.482 142.322 582.465 142.352 582.446C142.591 582.296 142.765 582.063 142.842 581.792C142.918 581.521 142.892 581.231 142.768 580.979C142.644 580.726 142.43 580.528 142.169 580.423C141.908 580.318 141.617 580.314 141.352 580.411C141.32 580.425 141.287 580.438 141.252 580.454C141.019 580.565 140.83 580.752 140.717 580.984C140.603 581.217 140.573 581.481 140.629 581.733C140.686 581.985 140.826 582.21 141.028 582.372C141.23 582.534 141.481 582.622 141.739 582.622H141.744Z" fill="#4C4A49"/>
<path d="M311.712 52.657C311.851 52.6569 311.99 52.6315 312.12 52.582C312.152 52.568 312.185 52.555 312.22 52.539C312.492 52.4064 312.7 52.1713 312.798 51.8854C312.896 51.5995 312.877 51.2862 312.744 51.0145C312.612 50.7428 312.377 50.5349 312.091 50.4365C311.805 50.3382 311.492 50.3574 311.22 50.49L311.126 50.539C310.912 50.6675 310.747 50.8624 310.654 51.094C310.562 51.3255 310.548 51.5809 310.615 51.8211C310.682 52.0613 310.825 52.273 311.024 52.4238C311.222 52.5745 311.465 52.6562 311.714 52.656L311.712 52.657Z" fill="#4C4A49"/>
<path d="M336.777 5.42401C337.313 5.42401 337.838 5.26497 338.284 4.96702C338.73 4.66907 339.077 4.24557 339.282 3.75007C339.488 3.25458 339.542 2.70933 339.437 2.18328C339.332 1.65723 339.074 1.174 338.695 0.79468C338.316 0.41536 337.833 0.156989 337.307 0.0522326C336.781 -0.0525234 336.235 0.00104411 335.74 0.206156C335.244 0.411267 334.821 0.758714 334.523 1.20457C334.224 1.65042 334.065 2.17466 334.065 2.711C334.065 3.43028 334.351 4.12003 334.86 4.62873C335.368 5.13743 336.058 5.42348 336.777 5.42401Z" fill="#4C4A49"/>
<path d="M197.948 155.303C198.605 155.303 199.24 155.064 199.735 154.631C200.229 154.198 200.55 153.6 200.637 152.949C200.724 152.297 200.571 151.636 200.207 151.089C199.844 150.541 199.293 150.144 198.659 149.972L198.559 149.946C198.359 149.901 198.155 149.878 197.95 149.878C197.292 149.877 196.656 150.116 196.161 150.549C195.666 150.983 195.345 151.581 195.259 152.233C195.172 152.886 195.326 153.547 195.691 154.095C196.056 154.642 196.608 155.038 197.243 155.209L197.343 155.235C197.542 155.28 197.745 155.303 197.948 155.303Z" fill="#4C4A49"/>
<path d="M264.298 155.343C264.652 155.343 264.997 155.238 265.291 155.041C265.584 154.845 265.813 154.566 265.948 154.239C266.083 153.913 266.119 153.554 266.05 153.207C265.981 152.861 265.81 152.542 265.561 152.292C265.311 152.043 264.992 151.872 264.646 151.803C264.299 151.734 263.94 151.77 263.614 151.905C263.287 152.04 263.008 152.269 262.812 152.563C262.615 152.856 262.51 153.202 262.51 153.555C262.51 153.79 262.556 154.022 262.646 154.24C262.735 154.457 262.867 154.654 263.033 154.82C263.199 154.986 263.397 155.118 263.614 155.207C263.831 155.297 264.063 155.343 264.298 155.343Z" fill="#4C4A49"/>
<path d="M275.093 156.772C275.286 156.772 275.474 156.715 275.634 156.608C275.795 156.502 275.92 156.35 275.994 156.172C276.068 155.994 276.087 155.798 276.05 155.609C276.012 155.42 275.919 155.246 275.783 155.11C275.647 154.974 275.474 154.881 275.285 154.843C275.096 154.805 274.9 154.824 274.722 154.898C274.544 154.971 274.392 155.096 274.285 155.256C274.178 155.416 274.12 155.604 274.12 155.797C274.12 155.925 274.145 156.052 274.194 156.17C274.243 156.288 274.314 156.395 274.405 156.486C274.495 156.577 274.602 156.648 274.72 156.697C274.839 156.747 274.965 156.772 275.093 156.772Z" fill="#4C4A49"/>
<path d="M92.0122 618.013C92.2898 618.013 92.5589 617.918 92.7751 617.743C92.9913 617.569 93.1417 617.326 93.2011 617.055C93.2081 617.019 93.2152 616.985 93.2202 616.949C93.2252 616.913 93.228 616.849 93.228 616.796C93.2282 616.59 93.1762 616.388 93.0769 616.207C92.9776 616.027 92.8342 615.875 92.6601 615.765C92.4861 615.655 92.287 615.591 92.0815 615.579C91.876 615.567 91.6708 615.607 91.4851 615.696V617.896C91.6496 617.974 91.8299 618.014 92.0122 618.013Z" fill="#4C4A49"/>
<path d="M155.657 610.946C155.832 610.946 156.004 610.909 156.163 610.837C156.194 610.823 156.226 610.806 156.257 610.789C156.492 610.657 156.676 610.45 156.781 610.202C156.886 609.954 156.905 609.678 156.837 609.418C156.768 609.157 156.615 608.927 156.402 608.763C156.188 608.598 155.927 608.51 155.657 608.51C155.495 608.511 155.336 608.545 155.187 608.61C155.153 608.624 155.122 608.639 155.087 608.654C154.844 608.78 154.65 608.984 154.537 609.233C154.424 609.482 154.398 609.762 154.464 610.028C154.529 610.293 154.682 610.529 154.898 610.697C155.114 610.865 155.381 610.956 155.654 610.954L155.657 610.946Z" fill="#4C4A49"/>
<path d="M301.838 32.512C301.996 32.5108 302.152 32.4767 302.296 32.412C302.33 32.3982 302.364 32.3822 302.396 32.364C302.656 32.2247 302.851 31.9902 302.942 31.7097C303.032 31.4292 303.011 31.1246 302.881 30.8599C302.752 30.5951 302.524 30.3908 302.248 30.29C301.971 30.1891 301.665 30.1995 301.396 30.319C301.364 30.333 301.331 30.348 301.296 30.365C301.074 30.4858 300.897 30.6772 300.796 30.9091C300.694 31.141 300.672 31.4001 300.734 31.6457C300.796 31.8912 300.938 32.1092 301.138 32.2651C301.337 32.4211 301.583 32.5062 301.836 32.507L301.838 32.512Z" fill="#4C4A49"/>
<path d="M324.013 77.744C324.128 77.7438 324.242 77.7266 324.352 77.693C324.386 77.681 324.42 77.669 324.452 77.655C324.592 77.5929 324.718 77.5032 324.823 77.3913C324.927 77.2794 325.008 77.1475 325.061 77.0036C325.113 76.8597 325.136 76.7067 325.128 76.5537C325.12 76.4008 325.081 76.251 325.014 76.1134C324.946 75.9758 324.852 75.8532 324.736 75.7529C324.62 75.6526 324.485 75.5767 324.34 75.5297C324.194 75.4827 324.04 75.4656 323.888 75.4794C323.735 75.4932 323.587 75.5376 323.452 75.61C323.42 75.627 323.39 75.6457 323.36 75.666C323.16 75.8041 323.009 76.0026 322.93 76.2324C322.851 76.4622 322.847 76.7113 322.92 76.9434C322.992 77.1754 323.137 77.3783 323.332 77.5223C323.528 77.6663 323.765 77.744 324.008 77.744H324.013Z" fill="#4C4A49"/>
<path d="M212.109 306.457C212.343 306.457 212.571 306.385 212.762 306.251C212.954 306.117 213.099 305.928 213.179 305.708C213.259 305.488 213.27 305.25 213.21 305.024C213.149 304.798 213.021 304.596 212.842 304.446C212.815 304.424 212.788 304.402 212.759 304.381C212.518 304.212 212.221 304.142 211.929 304.187C211.638 304.232 211.376 304.389 211.197 304.623C211.019 304.857 210.938 305.152 210.971 305.444C211.005 305.737 211.151 306.005 211.378 306.193C211.405 306.215 211.434 306.236 211.463 306.256C211.653 306.387 211.878 306.457 212.109 306.457Z" fill="#4C4A49"/>
<path d="M173.264 285.722C173.541 285.722 173.808 285.621 174.016 285.439C174.224 285.256 174.358 285.005 174.394 284.73C174.43 284.456 174.364 284.178 174.21 283.948C174.056 283.719 173.824 283.553 173.556 283.482C173.523 283.472 173.49 283.464 173.456 283.458C173.394 283.449 173.332 283.444 173.269 283.443C172.998 283.443 172.737 283.539 172.53 283.714C172.324 283.889 172.187 284.132 172.143 284.399C172.099 284.666 172.152 284.94 172.292 285.172C172.432 285.404 172.649 285.578 172.906 285.664C172.938 285.674 172.973 285.685 173.006 285.693C173.091 285.712 173.177 285.722 173.264 285.722Z" fill="#4C4A49"/>
<path d="M169.015 307.759C169.283 307.76 169.542 307.667 169.748 307.495C169.954 307.324 170.093 307.086 170.141 306.822C170.189 306.559 170.142 306.287 170.009 306.054C169.877 305.821 169.666 305.643 169.415 305.55C169.383 305.538 169.349 305.528 169.315 305.518C169.219 305.494 169.12 305.481 169.02 305.481C168.741 305.481 168.471 305.584 168.263 305.77C168.054 305.956 167.921 306.212 167.889 306.49C167.857 306.767 167.929 307.047 168.089 307.275C168.25 307.504 168.489 307.665 168.761 307.729C168.796 307.737 168.831 307.744 168.866 307.749C168.916 307.756 168.965 307.759 169.015 307.759Z" fill="#4C4A49"/>
<path d="M197.008 332.708C197.236 332.709 197.46 332.641 197.649 332.513C197.838 332.385 197.984 332.203 198.069 331.991C198.153 331.779 198.172 331.546 198.122 331.323C198.073 331.1 197.957 330.897 197.791 330.741C197.765 330.715 197.738 330.693 197.71 330.671C197.591 330.577 197.455 330.508 197.309 330.468C197.164 330.427 197.011 330.416 196.861 330.435C196.711 330.454 196.567 330.503 196.436 330.578C196.305 330.654 196.19 330.755 196.098 330.875C196.007 330.995 195.94 331.133 195.902 331.279C195.864 331.425 195.855 331.578 195.877 331.728C195.899 331.877 195.95 332.021 196.028 332.151C196.105 332.281 196.208 332.393 196.33 332.483C196.358 332.505 196.388 332.525 196.418 332.543C196.596 332.652 196.8 332.709 197.008 332.708Z" fill="#4C4A49"/>
<path d="M199.903 141.807C199.94 141.807 199.976 141.807 200.013 141.802C200.247 141.779 200.468 141.684 200.645 141.531C200.823 141.377 200.949 141.172 201.006 140.945C201.063 140.717 201.048 140.477 200.963 140.258C200.879 140.039 200.729 139.851 200.533 139.721C200.502 139.7 200.47 139.682 200.433 139.663C200.28 139.582 200.111 139.536 199.938 139.53C199.765 139.524 199.593 139.557 199.435 139.627C199.277 139.697 199.137 139.802 199.025 139.935C198.914 140.067 198.834 140.223 198.792 140.391C198.75 140.559 198.747 140.734 198.783 140.904C198.818 141.073 198.892 141.232 198.999 141.368C199.105 141.505 199.241 141.615 199.397 141.691C199.552 141.767 199.723 141.807 199.896 141.807H199.903Z" fill="#4C4A49"/>
<path d="M203.708 98.224C204.674 98.2235 205.625 97.9966 206.487 97.5613C207.349 97.1261 208.097 96.4947 208.67 95.7179C209.243 94.9412 209.626 94.0407 209.788 93.089C209.951 92.1372 209.887 91.1607 209.603 90.238C209.319 89.3152 208.823 88.472 208.153 87.776C207.484 87.0801 206.661 86.5508 205.75 86.2308C204.84 85.9108 203.866 85.809 202.909 85.9336C201.952 86.0581 201.037 86.4056 200.238 86.948L200.151 87.009C199.191 87.6864 198.445 88.6229 197.997 89.709C197.984 89.743 197.97 89.775 197.958 89.809C197.642 90.6214 197.501 91.4915 197.545 92.3622C197.589 93.2328 197.817 94.0843 198.214 94.8606C198.611 95.6369 199.167 96.3204 199.847 96.8661C200.527 97.4119 201.314 97.8075 202.158 98.027C202.194 98.037 202.228 98.046 202.258 98.053C202.733 98.1676 203.22 98.225 203.708 98.224Z" fill="#00CCFD"/>
<path d="M146.316 15.325C147.554 15.327 148.763 14.9551 149.786 14.258L149.873 14.197C150.739 13.5864 151.433 12.7631 151.889 11.8065C152.344 10.8498 152.546 9.79195 152.474 8.73481C152.402 7.67767 152.059 6.65685 151.478 5.77067C150.897 4.88448 150.098 4.1628 149.157 3.6751C148.217 3.18741 147.166 2.95013 146.107 2.98614C145.048 3.02215 144.016 3.33022 143.111 3.88068C142.206 4.43115 141.457 5.20547 140.938 6.12907C140.419 7.05266 140.146 8.09442 140.146 9.154V9.19199C140.146 9.22799 140.146 9.264 140.146 9.298C140.184 10.9094 140.85 12.4421 142.003 13.5684C143.156 14.6947 144.704 15.3252 146.316 15.325Z" fill="#00CCFD"/>
<path d="M156.935 372.832C157.565 372.832 158.175 372.61 158.657 372.205C159.14 371.8 159.465 371.238 159.574 370.618C159.684 369.998 159.573 369.359 159.259 368.813C158.945 368.267 158.449 367.849 157.857 367.632C157.823 367.62 157.789 367.608 157.757 367.598C157.492 367.513 157.216 367.469 156.937 367.47C156.268 367.47 155.623 367.721 155.129 368.173C154.635 368.625 154.328 369.245 154.268 369.912C154.208 370.578 154.4 371.243 154.806 371.776C155.211 372.308 155.802 372.67 156.46 372.789C156.494 372.796 156.53 372.801 156.566 372.806C156.688 372.823 156.812 372.832 156.935 372.832Z" fill="#4C4A49"/>
<path d="M301.487 364.761C302.008 364.762 302.526 364.675 303.019 364.504C303.053 364.494 303.087 364.48 303.119 364.468C304.216 364.06 305.122 363.256 305.658 362.215C305.675 362.184 305.69 362.152 305.706 362.115C305.991 361.527 306.15 360.885 306.173 360.232C306.196 359.579 306.084 358.928 305.842 358.321C305.828 358.289 305.815 358.256 305.801 358.221C305.548 357.629 305.175 357.095 304.707 356.653L304.629 356.58C303.908 355.93 303.003 355.519 302.039 355.405C301.074 355.29 300.098 355.477 299.245 355.941L299.153 355.992C298.257 356.507 297.556 357.304 297.158 358.257C296.761 359.211 296.689 360.27 296.953 361.269C296.962 361.303 296.97 361.337 296.98 361.369C297.022 361.514 297.072 361.657 297.126 361.797L297.167 361.897C297.499 362.679 298.038 363.357 298.725 363.857C298.754 363.877 298.783 363.9 298.812 363.918C299.596 364.467 300.53 364.761 301.487 364.761Z" fill="#4C4A49"/>
<path d="M250.471 242.609C251.253 242.61 252.023 242.415 252.71 242.04L252.804 241.989C253.677 241.489 254.366 240.722 254.77 239.801C255.174 238.879 255.271 237.853 255.047 236.872C254.823 235.891 254.29 235.008 253.526 234.354C252.762 233.699 251.809 233.307 250.805 233.236C249.802 233.164 248.802 233.417 247.953 233.957C247.104 234.496 246.451 235.295 246.091 236.234C245.73 237.173 245.68 238.203 245.949 239.172C246.218 240.141 246.792 240.998 247.585 241.617L247.669 241.68C248.478 242.284 249.461 242.61 250.471 242.609Z" fill="#4C4A49"/>
<path d="M378.009 253.967C379.081 253.967 380.121 253.6 380.955 252.927C381.789 252.253 382.368 251.315 382.594 250.267C382.603 250.233 382.609 250.199 382.616 250.167C382.671 249.874 382.699 249.576 382.699 249.277C382.699 248.323 382.409 247.392 381.866 246.607C381.324 245.822 380.555 245.222 379.662 244.885C379.628 244.871 379.596 244.859 379.562 244.848C378.397 244.442 377.118 244.51 376.002 245.036L375.902 245.082C375.228 245.42 374.645 245.916 374.203 246.528C373.761 247.139 373.473 247.848 373.363 248.594C373.253 249.341 373.325 250.103 373.573 250.816C373.82 251.528 374.236 252.171 374.784 252.689C374.809 252.713 374.835 252.737 374.862 252.761C375.724 253.541 376.846 253.971 378.009 253.967Z" fill="#4C4A49"/>
<path d="M460.907 276.697C461.043 276.697 461.176 276.69 461.307 276.68L461.413 276.67C462.365 276.565 463.262 276.172 463.985 275.544C464.708 274.915 465.221 274.08 465.456 273.152C465.464 273.116 465.473 273.082 465.482 273.052C465.559 272.71 465.598 272.36 465.598 272.009C465.598 271.364 465.465 270.726 465.207 270.134C464.949 269.543 464.571 269.011 464.098 268.573L464.02 268.501C463.408 267.957 462.663 267.583 461.862 267.416C461.06 267.249 460.228 267.295 459.45 267.549C458.671 267.803 457.973 268.257 457.424 268.864C456.874 269.472 456.494 270.213 456.32 271.013C456.312 271.047 456.305 271.083 456.298 271.113C456.243 271.407 456.215 271.705 456.215 272.004C456.214 272.601 456.327 273.193 456.549 273.748L456.59 273.848C456.951 274.694 457.553 275.415 458.32 275.921C459.088 276.428 459.987 276.698 460.907 276.697Z" fill="#4C4A49"/>
<path d="M620.329 334.014C623.238 334.014 626.028 332.858 628.085 330.801C630.142 328.744 631.298 325.954 631.298 323.045C631.298 320.136 630.142 317.346 628.085 315.289C626.028 313.232 623.238 312.076 620.329 312.076C620.188 312.076 620.046 312.076 619.905 312.083L619.799 312.088C618.169 312.166 616.577 312.606 615.139 313.378C613.701 314.15 612.453 315.234 611.488 316.55C611.466 316.579 611.446 316.606 611.425 316.635C610.601 317.777 610.005 319.067 609.671 320.435C609.662 320.469 609.656 320.505 609.647 320.535C609.273 322.139 609.263 323.806 609.619 325.413C609.975 327.021 610.688 328.528 611.704 329.824L611.77 329.907C612.797 331.19 614.099 332.226 615.581 332.937C617.063 333.648 618.686 334.016 620.329 334.014Z" fill="#00CCFD"/>
<path d="M475.786 488.414C477.122 488.416 478.448 488.173 479.697 487.697L479.797 487.658C481.725 486.899 483.4 485.611 484.627 483.941C484.649 483.912 484.67 483.883 484.69 483.854C486.079 481.923 486.803 479.592 486.753 477.213C486.702 474.835 485.88 472.537 484.41 470.666C484.388 470.637 484.366 470.61 484.344 470.582C483.317 469.299 482.015 468.264 480.533 467.553C479.052 466.842 477.429 466.474 475.786 466.476C475.447 466.476 475.109 466.491 474.779 466.522L474.674 466.532C472.845 466.718 471.092 467.362 469.576 468.403C468.06 469.444 466.831 470.849 466 472.49C465.983 472.522 465.968 472.553 465.952 472.59C464.783 474.959 464.507 477.671 465.176 480.227C465.845 482.783 467.414 485.011 469.594 486.504C469.625 486.523 469.654 486.543 469.683 486.564C470.864 487.357 472.189 487.912 473.583 488.197L473.683 488.218C474.376 488.35 475.08 488.416 475.786 488.414Z" fill="#00CCFD"/>
<path d="M456.657 629.117C458.695 629.117 460.655 628.338 462.136 626.938C463.617 625.539 464.507 623.626 464.622 621.592C464.622 621.556 464.622 621.522 464.627 621.486C464.627 621.372 464.634 621.256 464.634 621.14C464.636 619.583 464.181 618.06 463.325 616.76C463.305 616.731 463.286 616.7 463.265 616.671C462.1 614.948 460.309 613.749 458.273 613.327L458.173 613.306C457.019 613.084 455.83 613.12 454.691 613.411C453.552 613.703 452.492 614.241 451.586 614.99C450.679 615.738 449.949 616.677 449.448 617.74C448.947 618.803 448.686 619.964 448.685 621.139C448.683 622.51 449.036 623.858 449.708 625.052C449.727 625.083 449.744 625.113 449.761 625.144C450.462 626.352 451.468 627.355 452.678 628.052C453.888 628.749 455.26 629.117 456.657 629.117Z" fill="#00CCFD"/>
<path d="M382.26 671.63C383.461 671.629 384.646 671.357 385.728 670.834C386.809 670.311 387.758 669.551 388.505 668.611C389.252 667.67 389.777 666.573 390.041 665.402C390.305 664.23 390.301 663.014 390.03 661.844C390.021 661.808 390.015 661.774 390.006 661.744C389.834 661.045 389.567 660.372 389.214 659.744C389.195 659.713 389.178 659.683 389.161 659.652C388.565 658.63 387.75 657.752 386.776 657.08L386.687 657.02C385.658 656.335 384.483 655.898 383.257 655.744C382.03 655.589 380.784 655.721 379.617 656.129C379.583 656.139 379.55 656.151 379.517 656.165C377.758 656.81 376.281 658.053 375.347 659.678C374.412 661.302 374.079 663.203 374.406 665.049C374.733 666.894 375.699 668.565 377.135 669.769C378.571 670.973 380.385 671.633 382.259 671.634L382.26 671.63Z" fill="#00CCFD"/>
<path d="M616.077 633.124C617.011 633.125 617.93 632.891 618.751 632.446C619.572 632 620.269 631.356 620.777 630.573L620.835 630.484C621.597 629.255 621.855 627.78 621.555 626.365C621.254 624.951 620.42 623.707 619.225 622.894C618.029 622.08 616.566 621.759 615.14 621.999C613.714 622.238 612.436 623.019 611.572 624.178C611.552 624.205 611.531 624.234 611.511 624.263C611.179 624.727 610.919 625.24 610.742 625.783L610.711 625.883C610.57 626.344 610.49 626.821 610.472 627.303C610.472 627.337 610.472 627.373 610.472 627.408V627.516C610.472 628.252 610.617 628.981 610.898 629.662C611.18 630.342 611.593 630.96 612.113 631.481C612.634 632.002 613.251 632.415 613.932 632.697C614.612 632.979 615.341 633.124 616.077 633.124Z" fill="#080E67"/>
<path d="M686.223 675.659C686.828 675.658 687.422 675.499 687.948 675.2C688.474 674.9 688.913 674.469 689.222 673.949C689.532 673.429 689.701 672.838 689.714 672.233C689.727 671.628 689.583 671.03 689.295 670.498C689.008 669.965 688.588 669.516 688.076 669.195C687.563 668.873 686.976 668.69 686.371 668.662C685.767 668.635 685.166 668.765 684.627 669.04C684.088 669.315 683.629 669.724 683.295 670.229C683.276 670.26 683.256 670.289 683.239 670.32C682.911 670.851 682.731 671.459 682.718 672.083C682.704 672.706 682.858 673.322 683.162 673.867C683.466 674.411 683.91 674.864 684.448 675.179C684.987 675.494 685.599 675.66 686.223 675.659Z" fill="#4C4A49"/>
<path d="M468.136 368.224C468.624 368.218 469.106 368.11 469.55 367.907C469.994 367.704 470.391 367.41 470.714 367.044C471.038 366.678 471.282 366.249 471.429 365.784C471.577 365.318 471.626 364.827 471.573 364.341C471.519 363.856 471.365 363.387 471.119 362.965C470.874 362.543 470.543 362.177 470.147 361.89C469.752 361.604 469.301 361.403 468.823 361.301C468.346 361.199 467.852 361.199 467.374 361.299L467.274 361.323C466.46 361.527 465.746 362.017 465.262 362.703C464.778 363.389 464.557 364.226 464.638 365.062C464.719 365.897 465.097 366.676 465.704 367.256C466.311 367.836 467.106 368.179 467.944 368.223C467.98 368.223 468.016 368.223 468.052 368.223C468.088 368.223 468.107 368.224 468.136 368.224Z" fill="#4C4A49"/>
<path d="M555.182 395.962C555.849 395.964 556.503 395.775 557.066 395.417C557.63 395.059 558.079 394.548 558.362 393.944C558.644 393.339 558.748 392.667 558.661 392.005C558.574 391.344 558.299 390.721 557.87 390.21C557.848 390.183 557.824 390.156 557.8 390.128C557.216 389.423 556.378 388.975 555.468 388.88C554.557 388.785 553.645 389.051 552.928 389.621C552.211 390.19 551.746 391.018 551.632 391.927C551.519 392.835 551.765 393.752 552.32 394.481C552.341 394.51 552.361 394.537 552.383 394.566C552.709 395 553.132 395.352 553.618 395.594C554.104 395.836 554.639 395.962 555.182 395.962Z" fill="#4C4A49"/>
<path d="M543.585 406.756C544.029 406.756 544.465 406.633 544.844 406.401C545.222 406.169 545.53 405.837 545.732 405.441C545.934 405.045 546.022 404.602 545.988 404.159C545.954 403.716 545.798 403.291 545.537 402.931C545.516 402.902 545.494 402.873 545.472 402.846C545.074 402.345 544.494 402.023 543.858 401.951C543.223 401.878 542.585 402.061 542.085 402.459C541.584 402.856 541.262 403.437 541.189 404.072C541.117 404.707 541.299 405.345 541.697 405.846C541.718 405.874 541.741 405.902 541.765 405.928C541.991 406.189 542.271 406.398 542.585 406.541C542.899 406.683 543.24 406.757 543.585 406.756Z" fill="#4C4A49"/>
<path d="M342.011 512.646C342.227 512.647 342.442 512.618 342.65 512.561C342.684 512.552 342.718 512.542 342.75 512.53C343.056 512.429 343.339 512.268 343.582 512.057C343.824 511.845 344.022 511.587 344.164 511.298C344.305 511.008 344.387 510.694 344.405 510.372C344.422 510.05 344.375 509.728 344.267 509.425C344.158 509.122 343.989 508.844 343.771 508.607C343.553 508.37 343.29 508.179 342.997 508.045C342.703 507.912 342.387 507.838 342.065 507.829C341.743 507.82 341.422 507.876 341.122 507.993L341.022 508.034C340.518 508.259 340.107 508.651 339.857 509.143C339.607 509.635 339.533 510.198 339.648 510.738C339.763 511.278 340.06 511.762 340.49 512.109C340.919 512.456 341.454 512.646 342.006 512.646H342.011Z" fill="#4C4A49"/>
<path d="M345.926 528.328C346.237 528.328 346.545 528.268 346.833 528.151C346.865 528.139 346.899 528.124 346.933 528.11C347.431 527.879 347.835 527.486 348.079 526.994C348.322 526.503 348.391 525.943 348.274 525.407C348.157 524.871 347.861 524.391 347.435 524.046C347.008 523.701 346.477 523.512 345.928 523.51C345.72 523.51 345.512 523.537 345.311 523.59C345.277 523.599 345.243 523.609 345.211 523.619C344.661 523.791 344.191 524.154 343.886 524.643C343.581 525.132 343.461 525.714 343.548 526.284C343.634 526.853 343.923 527.373 344.36 527.749C344.797 528.124 345.354 528.331 345.93 528.331L345.926 528.328Z" fill="#4C4A49"/>
<path d="M349.059 540.509C349.415 540.51 349.768 540.431 350.089 540.277C350.121 540.262 350.154 540.246 350.189 540.229C350.7 539.957 351.096 539.51 351.305 538.969C351.513 538.429 351.521 537.832 351.325 537.286C351.13 536.741 350.744 536.285 350.24 536C349.736 535.715 349.146 535.622 348.578 535.736C348.544 535.743 348.511 535.751 348.478 535.762C347.908 535.906 347.41 536.253 347.078 536.738C346.746 537.223 346.603 537.813 346.675 538.396C346.748 538.98 347.031 539.517 347.472 539.906C347.912 540.295 348.48 540.509 349.068 540.509H349.059Z" fill="#4C4A49"/>
<path d="M351.468 579.041C351.597 579.042 351.726 579.023 351.85 578.985C351.884 578.975 351.918 578.963 351.95 578.951C352.237 578.839 352.476 578.63 352.625 578.36C352.775 578.09 352.825 577.777 352.768 577.474C352.711 577.171 352.55 576.897 352.312 576.701C352.075 576.504 351.776 576.396 351.468 576.396C351.328 576.397 351.19 576.418 351.057 576.461C351.025 576.473 350.99 576.485 350.957 576.498C350.675 576.616 350.443 576.828 350.3 577.098C350.157 577.368 350.112 577.679 350.172 577.978C350.232 578.278 350.393 578.547 350.63 578.741C350.866 578.935 351.163 579.041 351.468 579.041Z" fill="#4C4A49"/>
<path d="M401.169 428.46C401.52 428.46 401.864 428.357 402.157 428.162C402.45 427.968 402.678 427.691 402.814 427.367C402.828 427.335 402.84 427.301 402.852 427.267C402.996 426.858 402.985 426.41 402.823 426.008C402.66 425.606 402.356 425.278 401.968 425.084C401.58 424.89 401.135 424.844 400.716 424.955C400.296 425.066 399.932 425.326 399.691 425.687C399.671 425.716 399.652 425.746 399.635 425.777C399.474 426.049 399.389 426.36 399.39 426.677C399.39 426.911 399.436 427.142 399.525 427.359C399.614 427.575 399.745 427.771 399.91 427.937C400.075 428.102 400.272 428.234 400.488 428.324C400.704 428.413 400.935 428.46 401.169 428.46Z" fill="#4C4A49"/>
<path d="M402.957 440.513C403.412 440.513 403.857 440.378 404.235 440.125C404.613 439.873 404.908 439.513 405.082 439.093C405.256 438.673 405.302 438.211 405.213 437.764C405.124 437.318 404.905 436.908 404.583 436.587C404.262 436.265 403.852 436.046 403.406 435.957C402.96 435.868 402.497 435.914 402.077 436.088C401.657 436.262 401.297 436.557 401.045 436.935C400.792 437.313 400.657 437.758 400.657 438.213C400.657 438.823 400.899 439.408 401.331 439.839C401.762 440.271 402.347 440.513 402.957 440.513Z" fill="#4C4A49"/>
<path d="M352.278 396.297C352.71 396.297 353.134 396.175 353.501 395.945C353.867 395.715 354.161 395.387 354.349 394.997C354.364 394.965 354.38 394.934 354.393 394.897C354.656 394.353 354.694 393.727 354.499 393.154C354.304 392.582 353.892 392.109 353.351 391.839C352.81 391.568 352.184 391.522 351.61 391.709C351.035 391.897 350.557 392.303 350.279 392.84L350.228 392.934C350.048 393.285 349.961 393.677 349.976 394.072C349.99 394.466 350.106 394.851 350.312 395.188C350.518 395.525 350.806 395.803 351.151 395.997C351.495 396.19 351.883 396.292 352.278 396.292V396.297Z" fill="#4C4A49"/>
<path d="M420.52 73.099C421.093 73.0985 421.645 72.8842 422.068 72.498C422.492 72.1118 422.756 71.5816 422.808 71.011C422.861 70.4405 422.699 69.8708 422.354 69.4134C422.009 68.9561 421.505 68.6441 420.942 68.5384C420.379 68.4328 419.797 68.5411 419.309 68.8423C418.822 69.1435 418.464 69.6158 418.307 70.1667C418.149 70.7176 418.203 71.3074 418.458 71.8207C418.712 72.3341 419.149 72.7339 419.683 72.942C419.715 72.956 419.75 72.968 419.783 72.979C420.021 73.058 420.269 73.0985 420.52 73.099Z" fill="#4C4A49"/>
<path d="M492.793 21.662C492.928 21.662 493.062 21.657 493.193 21.648L493.3 21.641C494.902 21.5114 496.388 20.7594 497.442 19.5463C498.495 18.3332 499.031 16.7556 498.935 15.1519C498.838 13.5482 498.117 12.0461 496.927 10.9678C495.736 9.88946 494.169 9.32078 492.564 9.38374C490.959 9.4467 489.442 10.1363 488.339 11.3045C487.236 12.4728 486.635 14.0268 486.665 15.6331C486.694 17.2394 487.352 18.7702 488.497 19.897C489.642 21.0239 491.184 21.6572 492.79 21.661L492.793 21.662Z" fill="#00CCFD"/>
<path d="M509.399 189.301C509.995 189.301 510.578 189.124 511.074 188.793C511.57 188.462 511.956 187.991 512.185 187.44C512.413 186.889 512.472 186.283 512.356 185.698C512.24 185.113 511.953 184.576 511.531 184.154C511.109 183.732 510.572 183.445 509.987 183.329C509.402 183.213 508.796 183.272 508.245 183.501C507.694 183.729 507.224 184.115 506.892 184.611C506.561 185.107 506.384 185.69 506.384 186.286C506.384 187.086 506.702 187.853 507.267 188.418C507.833 188.983 508.599 189.301 509.399 189.301Z" fill="#4C4A49"/>
<path d="M530.507 223.658C531.083 223.658 531.648 223.492 532.133 223.182C532.618 222.871 533.005 222.427 533.246 221.904C533.259 221.872 533.275 221.839 533.288 221.804C533.449 221.417 533.528 221.001 533.52 220.582C533.512 220.163 533.416 219.751 533.239 219.371C533.062 218.991 532.808 218.652 532.493 218.376C532.178 218.1 531.809 217.892 531.409 217.767C531.01 217.641 530.588 217.6 530.172 217.647C529.755 217.693 529.353 217.826 528.991 218.036C528.628 218.247 528.314 218.53 528.068 218.869C527.821 219.208 527.648 219.595 527.559 220.004C527.551 220.04 527.544 220.074 527.537 220.11C527.506 220.287 527.491 220.466 527.491 220.645C527.492 221.444 527.81 222.211 528.375 222.776C528.941 223.341 529.708 223.658 530.507 223.658Z" fill="#4C4A49"/>
<path d="M665.122 11.679C666.091 11.6783 667.027 11.3228 667.752 10.6797C668.478 10.0365 668.942 9.15021 669.059 8.18791C669.176 7.22561 668.936 6.25387 668.386 5.45601C667.835 4.65814 667.012 4.08931 666.071 3.85684C665.13 3.62437 664.136 3.74432 663.277 4.19407C662.419 4.64382 661.754 5.39226 661.41 6.29822C661.065 7.20417 661.063 8.20499 661.406 9.11186C661.748 10.0187 662.411 10.769 663.268 11.221L663.362 11.27C663.909 11.5401 664.512 11.6801 665.122 11.679Z" fill="#4C4A49"/>
<path d="M603.322 222.089C603.922 222.089 604.513 221.952 605.052 221.689L605.152 221.641C605.673 221.372 606.128 220.99 606.484 220.524C606.84 220.058 607.089 219.518 607.212 218.944C607.335 218.371 607.329 217.777 607.195 217.206C607.061 216.635 606.802 216.1 606.437 215.641C606.415 215.614 606.393 215.585 606.369 215.559C605.954 215.063 605.425 214.677 604.827 214.432L604.727 214.393C604.15 214.176 603.531 214.097 602.918 214.16C602.305 214.224 601.715 214.43 601.195 214.761C600.675 215.092 600.239 215.539 599.922 216.067C599.605 216.596 599.415 217.191 599.367 217.805C599.367 217.841 599.362 217.877 599.36 217.911C599.36 217.977 599.355 218.044 599.355 218.111C599.354 218.633 599.456 219.15 599.655 219.632C599.854 220.114 600.146 220.553 600.514 220.922C600.883 221.291 601.32 221.585 601.802 221.785C602.284 221.985 602.8 222.088 603.322 222.089Z" fill="#4C4A49"/>
<path d="M730.86 64.14C731.759 64.1399 732.632 63.8345 733.335 63.2739C734.038 62.7132 734.53 61.9305 734.731 61.0538C734.931 60.1771 734.828 59.2584 734.438 58.4479C734.048 57.6374 733.395 56.9833 732.585 56.5925C731.775 56.2017 730.857 56.0975 729.98 56.2967C729.103 56.496 728.319 56.9871 727.758 57.6896C727.196 58.392 726.89 59.2643 726.889 60.1636C726.887 61.0629 727.191 61.936 727.751 62.64L727.817 62.722C728.19 63.1666 728.655 63.524 729.181 63.769C729.707 64.014 730.28 64.1406 730.86 64.14Z" fill="#080E67"/>
<path d="M665.122 156.343C665.951 156.342 666.759 156.083 667.433 155.6C668.107 155.117 668.613 154.435 668.881 153.651C669.148 152.866 669.163 152.017 668.924 151.223C668.684 150.429 668.203 149.73 667.546 149.224C667.517 149.202 667.488 149.18 667.457 149.159C666.747 148.644 665.887 148.379 665.011 148.404C664.134 148.429 663.291 148.743 662.612 149.298C661.932 149.853 661.456 150.616 661.256 151.47C661.056 152.324 661.145 153.22 661.507 154.018L661.553 154.118C661.88 154.786 662.388 155.348 663.019 155.742C663.65 156.135 664.379 156.343 665.122 156.343Z" fill="#4C4A49"/>
<path d="M195.784 166.467C196.475 166.467 197.144 166.218 197.667 165.767C198.191 165.315 198.535 164.691 198.637 164.007C198.74 163.324 198.593 162.626 198.225 162.041C197.856 161.456 197.29 161.023 196.629 160.82C196.595 160.81 196.561 160.8 196.529 160.791C196.158 160.689 195.77 160.662 195.388 160.712C195.007 160.761 194.639 160.887 194.306 161.081C193.974 161.275 193.684 161.534 193.453 161.842C193.222 162.15 193.054 162.501 192.961 162.874C192.868 163.247 192.85 163.636 192.909 164.016C192.968 164.397 193.102 164.761 193.304 165.089C193.506 165.417 193.772 165.701 194.085 165.924C194.398 166.148 194.754 166.307 195.129 166.391L195.229 166.413C195.412 166.449 195.598 166.467 195.784 166.467Z" fill="#4C4A49"/>
<path d="M501.294 597.36C502.157 597.361 503.01 597.175 503.794 596.815C504.577 596.455 505.274 595.929 505.835 595.274C505.857 595.247 505.881 595.22 505.905 595.192C506.385 594.611 506.752 593.944 506.985 593.227C506.995 593.195 507.007 593.16 507.016 593.127C507.34 592.058 507.359 590.92 507.071 589.842C506.782 588.763 506.198 587.786 505.383 587.022C504.568 586.259 503.556 585.738 502.461 585.519C501.366 585.301 500.232 585.393 499.186 585.785C499.154 585.798 499.12 585.81 499.086 585.824C498.262 586.151 497.521 586.657 496.916 587.306C496.312 587.955 495.859 588.73 495.591 589.575C495.323 590.42 495.247 591.314 495.367 592.193C495.487 593.071 495.801 593.912 496.286 594.654C496.305 594.685 496.325 594.714 496.344 594.743C496.893 595.55 497.631 596.211 498.494 596.667C499.357 597.123 500.318 597.361 501.294 597.36Z" fill="#4C4A49"/>
<path d="M541.682 631.372C543.229 631.372 544.716 630.772 545.83 629.699C546.944 628.625 547.598 627.162 547.656 625.616C547.656 625.58 547.656 625.546 547.656 625.511C547.656 625.476 547.656 625.432 547.656 625.393C547.656 624.171 547.282 622.979 546.584 621.977C545.886 620.974 544.897 620.209 543.752 619.785C542.606 619.361 541.358 619.298 540.175 619.605C538.993 619.911 537.932 620.573 537.137 621.5C537.113 621.527 537.091 621.555 537.069 621.582C536.257 622.56 535.78 623.772 535.707 625.04C535.707 625.076 535.707 625.112 535.702 625.147C535.699 625.227 535.697 625.309 535.697 625.392C535.697 625.844 535.748 626.295 535.849 626.735L535.875 626.835C536.197 628.131 536.944 629.282 537.997 630.104C539.049 630.926 540.347 631.373 541.682 631.372Z" fill="#080E67"/>
<path d="M503.419 215.321C504.354 215.322 505.275 215.103 506.11 214.683C506.945 214.263 507.669 213.652 508.225 212.901C508.246 212.872 508.266 212.843 508.287 212.816C508.643 212.319 508.921 211.77 509.109 211.188C509.121 211.154 509.131 211.12 509.141 211.088C509.271 210.661 509.353 210.222 509.385 209.777C509.385 209.741 509.385 209.705 509.392 209.67C509.397 209.563 509.401 209.454 509.401 209.343C509.401 207.757 508.771 206.236 507.649 205.115C506.528 203.994 505.007 203.364 503.421 203.364C503.291 203.364 503.16 203.364 503.031 203.376L502.925 203.385C501.769 203.482 500.667 203.913 499.751 204.625C498.836 205.337 498.148 206.3 497.77 207.397C497.392 208.493 497.342 209.676 497.624 210.801C497.907 211.926 498.51 212.944 499.361 213.732C499.387 213.756 499.412 213.78 499.441 213.804C500.535 214.783 501.951 215.323 503.419 215.321Z" fill="#4C4A49"/>
<path d="M297.769 28.239C298.544 28.2404 299.306 28.0457 299.985 27.673L300.077 27.622C301.049 27.062 301.785 26.1677 302.146 25.1055C302.508 24.0434 302.471 22.886 302.043 21.849C301.614 20.812 300.823 19.9663 299.817 19.4693C298.811 18.9723 297.659 18.8581 296.575 19.1479C295.491 19.4376 294.549 20.1117 293.926 21.0443C293.302 21.977 293.039 23.1046 293.185 24.2171C293.331 25.3295 293.876 26.3509 294.72 27.0909C295.563 27.8309 296.647 28.2389 297.769 28.239Z" fill="#080E67"/>
<path d="M211.63 111.471L211.603 111.445L236.893 84.67L0.560028 8.87L211.645 111.437L211.63 111.471L211.613 111.503L0.0539246 8.703L0.0810242 8.63499L237.024 84.635L211.638 111.514L211.612 111.502L211.63 111.471Z" fill="#57553F"/>
<path d="M211.63 140.938V140.9L226.505 139.412L236.849 114.291L211.66 140.962L211.633 140.936L211.606 140.91L237.073 113.945L226.559 139.48L211.538 140.98L211.606 140.908L211.63 140.938Z" fill="#57553F"/>
<path d="M315.919 153.643L315.914 153.68L226.476 140.263L236.937 114.854L316.151 153.717L315.914 153.683L315.919 153.646L315.902 153.68L236.976 114.96L226.576 140.207L315.92 153.607L315.915 153.645L315.898 153.679L315.919 153.643Z" fill="#57553F"/>
<path d="M56.6851 150.206L56.675 150.17L211.521 111.459L0.14209 8.74601L56.719 150.192L56.6851 150.206L56.6492 150.22L0 8.59501L211.739 111.481L56.6631 150.25L56.6492 150.22L56.6851 150.206Z" fill="#57553F"/>
<path d="M41.7729 387.995L123.632 358.232L7.50195 301.656L7.53418 301.589L123.822 358.242L41.7981 388.07L41.772 388L41.7729 387.995Z" fill="#57553F"/>
<path d="M242.916 445.315L242.909 445.277L309.936 431.877L339.645 379.886L242.936 445.35L242.916 445.319L242.896 445.288L339.869 379.645L309.985 431.945L242.743 445.394L242.897 445.294L242.916 445.315Z" fill="#57553F"/>
<path d="M289.104 474.042L289.092 474.076L242.786 456.151L310.043 442.7L289.119 474.086L289.092 474.076L289.104 474.042L289.073 474.02L309.882 442.808L243.052 456.175L289.117 474.006L289.104 474.042Z" fill="#57553F"/>
<path d="M312.938 503.715H312.9L309.919 444.115L339.851 391.737L312.913 503.979L312.899 503.72H312.937L312.901 503.712L339.656 392.227L309.995 444.136L312.974 503.719L312.937 503.72L312.901 503.711L312.938 503.715Z" fill="#57553F"/>
<path d="M312.94 509.638L312.911 509.662L289.055 481.334L309.991 449.934L312.982 509.752L312.91 509.667L312.939 509.643H312.902L309.928 450.163L289.148 481.332L312.969 509.615L312.94 509.639H312.903L312.94 509.638Z" fill="#57553F"/>
<path d="M314.43 606.971L314.394 606.983L289.072 526.548L243.02 508.722L314.46 606.951L314.43 606.971L314.398 606.993L242.812 508.561L289.131 526.491L314.531 607.179L314.396 606.993L314.43 606.971Z" fill="#57553F"/>
<path d="M314.429 606.972H314.391L312.901 554.841L289.192 526.685L314.464 606.96L314.428 606.97L314.392 606.982L289.009 526.352L312.974 554.811L314.474 607.237L314.394 606.981L314.429 606.972Z" fill="#57553F"/>
<path d="M345.686 656.158L314.392 606.984L312.902 554.829H312.977L314.467 606.964L345.747 656.121L345.686 656.158Z" fill="#57553F"/>
<path d="M123.764 373.934L135.683 432.034L135.61 432.049L123.691 373.949" fill="#57553F"/>
<path d="M135.646 498.213L135.684 498.204L162.484 609.869L242.846 508.669L135.646 498.247V498.21L135.651 498.173L242.988 508.609L162.446 610.034L135.599 498.169L135.652 498.174L135.646 498.213Z" fill="#57553F"/>
<path d="M305.491 63.794L305.528 63.787L315.969 123.453L236.856 84.643L305.519 63.743L305.527 63.784L305.49 63.791L305.5 63.827L237.058 84.658L315.869 123.32L305.454 63.799L305.49 63.792L305.5 63.828L305.491 63.794Z" fill="#57553F"/>
<path d="M336.801 2.73999L236.965 84.696L0.059082 8.707L0.0810547 8.635L236.949 84.612L336.749 2.682L336.801 2.73999Z" fill="#57553F"/>
<path d="M336.777 2.711L336.801 2.74L237.125 84.563L305.465 63.763L336.745 2.69201L336.777 2.70901L336.811 2.726L305.511 63.826L236.783 84.744L336.888 2.57L336.806 2.72899L336.777 2.711Z" fill="#57553F"/>
<path d="M336.777 2.711L336.814 2.718L315.914 123.608L305.446 63.79L336.846 2.477L336.805 2.71699L336.768 2.71L336.802 2.727L305.52 63.801L315.91 123.171L336.732 2.70399L336.768 2.71L336.802 2.727L336.777 2.711Z" fill="#57553F"/>
<path d="M102.868 478.568L3.047 471.118L3.05212 471.043L102.873 478.493" fill="#57553F"/>
<path d="M102.87 528.011L102.901 527.989L162.385 609.779L135.627 498.279L102.897 528.034L102.871 528.007L102.847 527.98L135.67 498.14L162.546 610.121L102.822 528.002L102.847 527.98L102.87 528.011Z" fill="#57553F"/>
<path d="M102.869 528.011L102.905 527.999L128.26 608.535L107.305 598.056L102.814 527.707L102.906 527.998L102.87 528.01H102.907L107.376 598.01L128.135 608.39L102.835 528.021L102.871 528.011H102.908H102.869Z" fill="#57553F"/>
<path d="M102.869 528.011L102.9 527.989L162.539 609.994L128.171 608.499L102.766 527.799L102.901 527.985L102.87 528.007L102.906 527.995L128.226 608.422L162.39 609.908L102.841 528.029L102.87 528.007L102.906 527.995L102.869 528.011Z" fill="#57553F"/>
<path d="M117.786 256.281L181.895 292.065L123.752 345.735L123.701 345.68L181.768 292.08L117.749 256.348L117.786 256.281Z" fill="#57553F"/>
<path d="M181.832 311.352L181.866 311.366L135.634 423.218L123.687 364.973L181.932 311.211L181.867 311.366L181.832 311.352L181.858 311.379L123.768 365L135.66 422.963L181.798 311.338L181.832 311.352Z" fill="#57553F"/>
<path d="M181.832 313.853L181.866 313.836L242.929 435.967L339.673 370.477L181.817 313.887L181.829 313.853L181.841 313.817L339.835 370.456L242.9 436.076L181.754 313.787L181.841 313.818L181.832 313.853Z" fill="#57553F"/>
<path d="M181.837 313.845L181.871 313.828L242.984 436.056L135.598 425.617L181.834 313.755L181.871 313.828L181.837 313.845L181.871 313.859L135.705 425.552L242.854 435.973L181.799 313.866L181.833 313.849L181.867 313.863L181.837 313.845Z" fill="#57553F"/>
<path d="M181.832 264.944L181.796 264.934L211.596 157.641L226.58 156.141L181.861 264.957L181.791 264.933L181.827 264.943L181.793 264.929L226.464 156.229L211.653 157.71L181.862 264.955L181.827 264.945L181.793 264.931L181.832 264.944Z" fill="#57553F"/>
<path d="M181.832 264.955L181.81 264.924L315.821 169.627L226.55 156.236L181.865 264.967L181.831 264.953L181.797 264.939L226.501 156.154L316.012 169.581L181.744 265.061L181.794 264.942L181.832 264.955Z" fill="#57553F"/>
<path d="M181.829 265.384L181.81 265.416L117.697 229.631L211.694 158.013L181.856 265.434L181.813 265.412L181.832 265.38L181.796 265.37L211.563 158.213L117.836 229.624L181.852 265.352L181.833 265.384L181.797 265.374L181.829 265.384Z" fill="#57553F"/>
<path d="M315.941 181.56L181.912 276.868L339.77 333.459L339.744 333.529L181.752 276.89L315.897 181.498L315.941 181.56Z" fill="#57553F"/>
<path d="M316.25 168.177C315.284 168.177 314.339 167.891 313.536 167.354C312.733 166.817 312.107 166.054 311.737 165.161C311.367 164.269 311.27 163.287 311.459 162.339C311.647 161.391 312.113 160.521 312.796 159.838C313.479 159.155 314.349 158.689 315.297 158.501C316.245 158.312 317.227 158.409 318.119 158.779C319.012 159.149 319.775 159.775 320.312 160.578C320.849 161.381 321.135 162.326 321.135 163.292C321.135 163.934 321.009 164.569 320.763 165.162C320.518 165.754 320.158 166.293 319.705 166.747C319.251 167.2 318.712 167.56 318.12 167.805C317.527 168.051 316.892 168.177 316.25 168.177Z" fill="#06090F"/>
<path d="M305.491 67.239C304.81 67.2392 304.144 67.0373 303.577 66.6589C303.01 66.2805 302.568 65.7425 302.308 65.113C302.047 64.4835 301.978 63.7908 302.111 63.1225C302.244 62.4542 302.572 61.8402 303.054 61.3584C303.535 60.8765 304.149 60.5483 304.818 60.4153C305.486 60.2823 306.179 60.3504 306.808 60.6111C307.438 60.8718 307.976 61.3134 308.354 61.88C308.733 62.4465 308.935 63.1126 308.935 63.794C308.935 64.7075 308.572 65.5836 307.926 66.2296C307.28 66.8757 306.404 67.2387 305.491 67.239Z" fill="#06090F"/>
<path d="M236.957 88.097C236.276 88.0972 235.61 87.8953 235.043 87.5169C234.476 87.1385 234.034 86.6005 233.774 85.9711C233.513 85.3416 233.444 84.6489 233.577 83.9805C233.71 83.3122 234.038 82.6983 234.52 82.2164C235.001 81.7345 235.615 81.4063 236.284 81.2733C236.952 81.1403 237.644 81.2085 238.274 81.4692C238.904 81.7299 239.442 82.1714 239.82 82.738C240.199 83.3045 240.401 83.9706 240.401 84.652C240.401 85.5655 240.038 86.4416 239.392 87.0876C238.747 87.7337 237.871 88.0967 236.957 88.097Z" fill="#06090F"/>
<path d="M226.527 147.619C226.206 147.619 225.891 147.523 225.624 147.345C225.357 147.166 225.149 146.912 225.026 146.615C224.904 146.318 224.871 145.991 224.934 145.676C224.997 145.361 225.152 145.071 225.38 144.844C225.607 144.617 225.897 144.463 226.212 144.4C226.527 144.338 226.854 144.37 227.151 144.493C227.448 144.616 227.701 144.825 227.88 145.092C228.058 145.359 228.153 145.674 228.153 145.995C228.153 146.208 228.111 146.42 228.029 146.617C227.947 146.814 227.827 146.993 227.676 147.144C227.525 147.295 227.346 147.414 227.149 147.496C226.952 147.577 226.741 147.619 226.527 147.619Z" fill="#06090F"/>
<path d="M211.629 151.794C210.773 151.794 209.937 151.54 209.226 151.065C208.514 150.59 207.96 149.914 207.632 149.123C207.305 148.333 207.219 147.463 207.386 146.624C207.553 145.785 207.965 145.014 208.57 144.409C209.175 143.804 209.946 143.392 210.785 143.225C211.624 143.058 212.494 143.144 213.285 143.471C214.075 143.799 214.751 144.353 215.226 145.065C215.701 145.776 215.955 146.612 215.955 147.468C215.955 148.615 215.499 149.716 214.688 150.527C213.877 151.338 212.776 151.794 211.629 151.794Z" fill="#06090F"/>
<path d="M111.209 67.376C110.353 67.3764 109.517 67.123 108.805 66.6479C108.093 66.1728 107.539 65.4973 107.211 64.7068C106.883 63.9164 106.797 63.0465 106.964 62.2072C107.131 61.368 107.543 60.597 108.148 59.9918C108.752 59.3866 109.523 58.9743 110.362 58.8072C111.202 58.6402 112.072 58.7257 112.862 59.0531C113.653 59.3805 114.328 59.9349 114.804 60.6464C115.279 61.3578 115.533 62.1943 115.533 63.05C115.533 63.618 115.421 64.1804 115.204 64.7052C114.987 65.23 114.668 65.7068 114.267 66.1085C113.865 66.5102 113.389 66.8289 112.864 67.0464C112.339 67.2639 111.777 67.3758 111.209 67.376Z" fill="#06090F"/>
<path d="M158.139 61.755C157.54 61.7548 156.955 61.577 156.457 61.2441C155.959 60.9112 155.571 60.4381 155.342 59.8847C155.112 59.3312 155.053 58.7223 155.169 58.1348C155.286 57.5473 155.575 57.0077 155.998 56.5842C156.422 56.1606 156.961 55.8721 157.549 55.7552C158.136 55.6383 158.745 55.6982 159.299 55.9274C159.852 56.1565 160.325 56.5446 160.658 57.0425C160.991 57.5405 161.169 58.126 161.169 58.725C161.169 59.1229 161.091 59.5169 160.938 59.8845C160.786 60.2521 160.563 60.5862 160.282 60.8675C160 61.1489 159.666 61.3721 159.299 61.5243C158.931 61.6766 158.537 61.755 158.139 61.755Z" fill="#06090F"/>
<path d="M187.681 70.247C187.395 70.247 187.116 70.1623 186.879 70.0037C186.641 69.845 186.456 69.6194 186.347 69.3556C186.238 69.0917 186.209 68.8014 186.265 68.5213C186.32 68.2412 186.458 67.9839 186.66 67.7819C186.862 67.58 187.119 67.4425 187.399 67.3867C187.679 67.331 187.97 67.3596 188.234 67.4689C188.498 67.5782 188.723 67.7633 188.882 68.0008C189.04 68.2382 189.125 68.5174 189.125 68.803C189.125 68.9927 189.088 69.1805 189.015 69.3558C188.943 69.531 188.837 69.6903 188.702 69.8244C188.568 69.9585 188.409 70.0648 188.234 70.1374C188.058 70.2099 187.871 70.2471 187.681 70.247Z" fill="#06090F"/>
<path d="M181.833 294.11C181.182 294.11 180.546 293.917 180.005 293.556C179.464 293.195 179.043 292.681 178.794 292.08C178.544 291.479 178.479 290.818 178.606 290.18C178.733 289.541 179.046 288.955 179.506 288.495C179.966 288.035 180.553 287.722 181.191 287.595C181.829 287.468 182.49 287.533 183.091 287.783C183.692 288.032 184.206 288.453 184.567 288.994C184.929 289.535 185.121 290.171 185.121 290.822C185.121 291.254 185.036 291.681 184.871 292.08C184.706 292.479 184.464 292.842 184.158 293.147C183.853 293.453 183.49 293.695 183.091 293.86C182.692 294.025 182.265 294.11 181.833 294.11Z" fill="#06090F"/>
<path d="M117.769 246.393C117.118 246.393 116.482 246.2 115.941 245.839C115.4 245.478 114.979 244.964 114.73 244.363C114.481 243.762 114.415 243.101 114.542 242.463C114.669 241.825 114.982 241.239 115.442 240.779C115.902 240.319 116.488 240.005 117.126 239.878C117.764 239.751 118.425 239.816 119.026 240.065C119.627 240.314 120.141 240.736 120.503 241.277C120.864 241.817 121.057 242.453 121.057 243.104C121.057 243.976 120.711 244.813 120.094 245.429C119.477 246.046 118.641 246.393 117.769 246.393Z" fill="#06090F"/>
<path d="M123.728 365.691C123.078 365.691 122.442 365.498 121.901 365.137C121.36 364.775 120.938 364.262 120.69 363.661C120.441 363.06 120.375 362.398 120.502 361.76C120.629 361.122 120.942 360.536 121.402 360.076C121.862 359.616 122.448 359.303 123.086 359.176C123.724 359.049 124.386 359.114 124.987 359.363C125.588 359.612 126.101 360.034 126.463 360.575C126.824 361.116 127.017 361.752 127.017 362.402C127.017 362.834 126.932 363.262 126.767 363.661C126.601 364.06 126.359 364.422 126.054 364.728C125.748 365.033 125.386 365.275 124.987 365.441C124.588 365.606 124.16 365.691 123.728 365.691Z" fill="#06090F"/>
<path d="M135.646 443.234C134.996 443.234 134.36 443.041 133.819 442.68C133.278 442.318 132.856 441.804 132.607 441.203C132.358 440.602 132.293 439.941 132.42 439.303C132.547 438.665 132.861 438.079 133.321 437.619C133.781 437.159 134.367 436.846 135.005 436.719C135.643 436.592 136.304 436.658 136.905 436.907C137.506 437.156 138.02 437.577 138.381 438.118C138.743 438.659 138.935 439.295 138.935 439.946C138.935 440.378 138.85 440.805 138.685 441.204C138.519 441.603 138.277 441.966 137.972 442.271C137.666 442.577 137.304 442.819 136.905 442.984C136.506 443.149 136.078 443.234 135.646 443.234Z" fill="#06090F"/>
<path d="M162.46 613.41C161.776 613.41 161.108 613.207 160.54 612.827C159.971 612.448 159.528 611.908 159.266 611.276C159.004 610.644 158.936 609.949 159.07 609.279C159.203 608.608 159.532 607.992 160.016 607.509C160.499 607.025 161.115 606.696 161.786 606.562C162.456 606.429 163.151 606.498 163.783 606.759C164.415 607.021 164.955 607.464 165.334 608.032C165.714 608.601 165.917 609.269 165.917 609.953C165.917 610.407 165.828 610.857 165.654 611.276C165.481 611.696 165.226 612.077 164.905 612.398C164.584 612.719 164.203 612.973 163.783 613.147C163.364 613.321 162.914 613.41 162.46 613.41Z" fill="#06090F"/>
<path d="M128.198 610.618C127.772 610.618 127.355 610.492 127 610.255C126.646 610.018 126.369 609.682 126.206 609.288C126.043 608.894 126 608.461 126.083 608.043C126.166 607.625 126.372 607.241 126.673 606.939C126.975 606.638 127.359 606.432 127.777 606.349C128.195 606.266 128.628 606.309 129.022 606.472C129.416 606.635 129.753 606.912 129.989 607.266C130.226 607.621 130.352 608.038 130.352 608.464C130.352 609.035 130.125 609.583 129.721 609.987C129.317 610.391 128.769 610.618 128.198 610.618Z" fill="#06090F"/>
<path d="M242.917 458.027C242.112 458.027 241.324 457.788 240.655 457.341C239.985 456.893 239.463 456.257 239.155 455.513C238.847 454.769 238.766 453.95 238.923 453.161C239.08 452.371 239.468 451.645 240.038 451.076C240.607 450.506 241.333 450.118 242.123 449.961C242.913 449.804 243.731 449.885 244.475 450.193C245.219 450.501 245.855 451.023 246.303 451.693C246.75 452.362 246.989 453.15 246.989 453.955C246.989 455.035 246.56 456.071 245.796 456.834C245.033 457.598 243.997 458.027 242.917 458.027Z" fill="#06090F"/>
<path d="M309.961 437.498C309.628 437.498 309.302 437.399 309.024 437.214C308.747 437.029 308.531 436.766 308.404 436.458C308.276 436.15 308.242 435.812 308.307 435.485C308.372 435.158 308.533 434.857 308.769 434.622C309.004 434.386 309.305 434.225 309.632 434.16C309.959 434.095 310.297 434.129 310.605 434.256C310.913 434.384 311.177 434.6 311.362 434.877C311.547 435.155 311.645 435.481 311.645 435.814C311.645 436.26 311.467 436.689 311.151 437.004C310.835 437.32 310.407 437.497 309.961 437.498Z" fill="#06090F"/>
<path d="M325.112 449.1C324.779 449.1 324.453 449.002 324.176 448.817C323.898 448.632 323.682 448.369 323.555 448.061C323.427 447.753 323.393 447.414 323.458 447.087C323.523 446.76 323.683 446.46 323.919 446.224C324.154 445.988 324.454 445.828 324.781 445.762C325.108 445.697 325.447 445.73 325.755 445.858C326.063 445.985 326.326 446.201 326.511 446.478C326.697 446.755 326.796 447.081 326.796 447.414C326.796 447.861 326.619 448.289 326.303 448.605C325.987 448.922 325.559 449.099 325.112 449.1Z" fill="#06090F"/>
<path d="M310.463 394.013C310.239 394.013 310.02 393.947 309.834 393.822C309.648 393.698 309.503 393.521 309.417 393.314C309.331 393.107 309.309 392.88 309.353 392.66C309.396 392.441 309.504 392.239 309.663 392.081C309.821 391.922 310.023 391.814 310.242 391.771C310.462 391.727 310.689 391.749 310.896 391.835C311.103 391.921 311.28 392.066 311.404 392.252C311.529 392.438 311.595 392.657 311.595 392.881C311.595 393.181 311.476 393.469 311.264 393.681C311.051 393.894 310.763 394.013 310.463 394.013Z" fill="#06090F"/>
<path d="M317.245 419.658C317.021 419.658 316.803 419.591 316.617 419.467C316.431 419.343 316.286 419.166 316.201 418.959C316.115 418.752 316.093 418.525 316.137 418.305C316.181 418.086 316.289 417.885 316.447 417.727C316.605 417.569 316.807 417.461 317.026 417.418C317.246 417.374 317.473 417.397 317.68 417.483C317.886 417.568 318.063 417.713 318.187 417.9C318.311 418.086 318.377 418.304 318.377 418.528C318.377 418.677 318.348 418.824 318.291 418.961C318.234 419.098 318.15 419.223 318.045 419.328C317.94 419.433 317.815 419.516 317.678 419.573C317.541 419.629 317.394 419.658 317.245 419.658Z" fill="#06090F"/>
<path d="M333.414 382.38C333.19 382.38 332.972 382.314 332.786 382.19C332.599 382.066 332.454 381.889 332.369 381.683C332.283 381.476 332.26 381.249 332.304 381.029C332.347 380.81 332.455 380.608 332.613 380.45C332.771 380.292 332.972 380.184 333.191 380.14C333.411 380.096 333.638 380.118 333.845 380.204C334.052 380.289 334.228 380.434 334.353 380.62C334.477 380.806 334.544 381.024 334.544 381.248C334.544 381.397 334.515 381.544 334.458 381.681C334.402 381.818 334.318 381.943 334.214 382.048C334.109 382.153 333.984 382.236 333.847 382.293C333.71 382.35 333.563 382.38 333.414 382.38Z" fill="#06090F"/>
<path d="M327.662 378.625C327.438 378.625 327.219 378.559 327.033 378.435C326.846 378.311 326.701 378.134 326.615 377.928C326.529 377.721 326.506 377.493 326.55 377.273C326.593 377.054 326.701 376.852 326.859 376.693C327.017 376.535 327.219 376.427 327.438 376.383C327.658 376.339 327.886 376.361 328.093 376.447C328.3 376.532 328.477 376.678 328.601 376.864C328.726 377.05 328.792 377.269 328.792 377.493C328.792 377.641 328.763 377.789 328.706 377.926C328.65 378.063 328.566 378.188 328.462 378.293C328.357 378.398 328.232 378.481 328.095 378.538C327.958 378.595 327.811 378.625 327.662 378.625Z" fill="#06090F"/>
<path d="M336.614 384.25C336.433 384.25 336.256 384.197 336.106 384.097C335.956 383.996 335.838 383.854 335.769 383.687C335.7 383.52 335.681 383.336 335.716 383.159C335.752 382.981 335.838 382.818 335.966 382.69C336.094 382.563 336.256 382.475 336.434 382.44C336.611 382.404 336.795 382.422 336.962 382.491C337.129 382.56 337.272 382.677 337.372 382.827C337.473 382.978 337.527 383.154 337.527 383.335C337.527 383.577 337.431 383.81 337.26 383.981C337.089 384.153 336.856 384.25 336.614 384.25Z" fill="#06090F"/>
<path d="M313.176 354.489C312.995 354.489 312.818 354.436 312.668 354.335C312.518 354.235 312.4 354.092 312.331 353.925C312.262 353.758 312.243 353.575 312.278 353.397C312.314 353.22 312.401 353.057 312.528 352.929C312.656 352.801 312.819 352.714 312.996 352.679C313.174 352.643 313.357 352.661 313.525 352.73C313.692 352.8 313.834 352.917 313.935 353.067C314.035 353.217 314.089 353.394 314.089 353.575C314.089 353.695 314.066 353.814 314.02 353.925C313.974 354.036 313.907 354.136 313.822 354.221C313.737 354.306 313.637 354.373 313.526 354.419C313.415 354.465 313.296 354.489 313.176 354.489Z" fill="#06090F"/>
<path d="M307.751 351.888C307.57 351.888 307.393 351.835 307.243 351.734C307.093 351.634 306.975 351.491 306.906 351.324C306.836 351.158 306.818 350.974 306.854 350.796C306.889 350.619 306.976 350.456 307.103 350.328C307.231 350.2 307.394 350.113 307.571 350.078C307.749 350.042 307.933 350.06 308.1 350.129C308.267 350.199 308.409 350.316 308.51 350.466C308.61 350.616 308.664 350.793 308.664 350.974C308.664 351.094 308.641 351.213 308.595 351.324C308.549 351.435 308.482 351.535 308.397 351.62C308.312 351.705 308.211 351.772 308.101 351.818C307.99 351.864 307.871 351.888 307.751 351.888Z" fill="#06090F"/>
<path d="M295.329 346.04C295.148 346.04 294.972 345.986 294.821 345.886C294.671 345.786 294.554 345.643 294.485 345.476C294.415 345.309 294.397 345.125 294.433 344.948C294.468 344.77 294.555 344.608 294.683 344.48C294.81 344.352 294.973 344.265 295.151 344.23C295.328 344.194 295.512 344.212 295.679 344.282C295.846 344.351 295.988 344.468 296.089 344.618C296.189 344.768 296.243 344.945 296.243 345.126C296.243 345.368 296.146 345.601 295.975 345.772C295.804 345.943 295.571 346.04 295.329 346.04Z" fill="#06090F"/>
<path d="M223.744 403.498C223.563 403.498 223.387 403.444 223.237 403.343C223.086 403.243 222.969 403.1 222.9 402.933C222.831 402.766 222.813 402.582 222.849 402.405C222.884 402.228 222.971 402.065 223.099 401.937C223.227 401.81 223.39 401.723 223.567 401.687C223.744 401.652 223.928 401.67 224.095 401.74C224.262 401.809 224.405 401.926 224.505 402.076C224.606 402.227 224.659 402.403 224.659 402.584C224.659 402.704 224.636 402.823 224.59 402.934C224.544 403.045 224.476 403.146 224.391 403.231C224.306 403.316 224.205 403.383 224.094 403.429C223.983 403.475 223.864 403.498 223.744 403.498Z" fill="#06090F"/>
<path d="M339.757 370.147C339.014 370.147 338.288 369.927 337.67 369.514C337.053 369.101 336.571 368.515 336.287 367.828C336.003 367.142 335.928 366.387 336.073 365.658C336.218 364.93 336.576 364.26 337.101 363.735C337.626 363.21 338.296 362.852 339.024 362.707C339.753 362.562 340.508 362.637 341.194 362.921C341.881 363.205 342.467 363.687 342.88 364.304C343.293 364.922 343.513 365.648 343.513 366.391C343.513 366.884 343.416 367.373 343.228 367.829C343.039 368.284 342.762 368.699 342.413 369.047C342.065 369.396 341.651 369.673 341.195 369.862C340.739 370.05 340.25 370.147 339.757 370.147Z" fill="#06090F"/>
<path d="M314.43 610.901C313.653 610.901 312.894 610.67 312.248 610.238C311.602 609.807 311.098 609.193 310.801 608.475C310.504 607.757 310.426 606.967 310.578 606.205C310.729 605.443 311.103 604.743 311.653 604.194C312.202 603.644 312.902 603.27 313.664 603.119C314.426 602.967 315.216 603.045 315.934 603.342C316.652 603.639 317.266 604.143 317.698 604.789C318.129 605.434 318.36 606.194 318.36 606.971C318.36 608.013 317.946 609.013 317.209 609.75C316.472 610.487 315.472 610.901 314.43 610.901Z" fill="#06090F"/>
<path d="M345.716 658.594C345.23 658.594 344.755 658.45 344.351 658.18C343.948 657.91 343.633 657.527 343.447 657.078C343.261 656.629 343.212 656.135 343.307 655.659C343.402 655.182 343.636 654.745 343.979 654.401C344.323 654.058 344.76 653.824 345.237 653.729C345.713 653.634 346.207 653.683 346.656 653.869C347.105 654.055 347.488 654.37 347.758 654.773C348.028 655.177 348.172 655.652 348.172 656.138C348.172 656.789 347.913 657.414 347.453 657.875C346.992 658.335 346.367 658.594 345.716 658.594Z" fill="#06090F"/>
<path d="M184.288 449.074C183.802 449.074 183.327 448.93 182.924 448.66C182.52 448.39 182.205 448.007 182.019 447.558C181.833 447.109 181.785 446.615 181.879 446.139C181.974 445.662 182.208 445.225 182.551 444.881C182.895 444.538 183.333 444.304 183.809 444.209C184.285 444.114 184.779 444.163 185.228 444.349C185.677 444.535 186.06 444.85 186.33 445.253C186.6 445.657 186.744 446.132 186.744 446.618C186.744 447.269 186.485 447.894 186.025 448.355C185.564 448.815 184.939 449.074 184.288 449.074Z" fill="#06090F"/>
<path d="M198.852 530.428C198.366 530.428 197.891 530.284 197.487 530.014C197.084 529.744 196.769 529.361 196.583 528.912C196.397 528.463 196.349 527.969 196.443 527.493C196.538 527.016 196.772 526.579 197.115 526.235C197.459 525.892 197.897 525.658 198.373 525.563C198.849 525.469 199.343 525.517 199.792 525.703C200.241 525.889 200.624 526.204 200.894 526.608C201.164 527.011 201.308 527.486 201.308 527.972C201.308 528.295 201.245 528.614 201.121 528.912C200.998 529.21 200.817 529.481 200.589 529.709C200.361 529.937 200.09 530.118 199.792 530.241C199.494 530.365 199.175 530.428 198.852 530.428Z" fill="#06090F"/>
<path d="M205.136 518.687C204.802 518.687 204.475 518.588 204.198 518.402C203.92 518.216 203.703 517.952 203.576 517.643C203.448 517.335 203.414 516.995 203.48 516.667C203.545 516.339 203.706 516.038 203.942 515.802C204.178 515.566 204.479 515.405 204.807 515.34C205.135 515.274 205.474 515.308 205.783 515.436C206.092 515.563 206.356 515.78 206.542 516.058C206.728 516.335 206.827 516.662 206.827 516.996C206.827 517.218 206.783 517.438 206.699 517.643C206.614 517.849 206.489 518.035 206.332 518.192C206.175 518.349 205.988 518.474 205.783 518.559C205.578 518.644 205.358 518.687 205.136 518.687Z" fill="#06090F"/>
<path d="M260.795 330.434C260.461 330.434 260.134 330.335 259.856 330.15C259.578 329.964 259.361 329.7 259.233 329.391C259.105 329.082 259.071 328.742 259.137 328.415C259.202 328.087 259.363 327.785 259.599 327.549C259.836 327.313 260.137 327.152 260.465 327.086C260.793 327.021 261.132 327.055 261.441 327.183C261.75 327.311 262.014 327.528 262.2 327.806C262.385 328.084 262.484 328.411 262.484 328.745C262.484 329.193 262.306 329.622 261.989 329.939C261.672 330.256 261.243 330.434 260.795 330.434Z" fill="#06090F"/>
<path d="M269.039 334.091C268.705 334.091 268.378 333.992 268.1 333.807C267.822 333.621 267.605 333.357 267.477 333.048C267.349 332.739 267.315 332.399 267.38 332.072C267.446 331.744 267.607 331.442 267.843 331.206C268.079 330.97 268.381 330.809 268.709 330.743C269.036 330.678 269.376 330.712 269.685 330.84C269.994 330.968 270.258 331.185 270.444 331.463C270.629 331.741 270.728 332.068 270.728 332.402C270.728 332.85 270.55 333.28 270.233 333.596C269.917 333.913 269.487 334.091 269.039 334.091Z" fill="#06090F"/>
<path d="M275.439 337.016C275.105 337.016 274.778 336.916 274.5 336.731C274.222 336.545 274.006 336.281 273.878 335.972C273.75 335.663 273.717 335.323 273.783 334.995C273.848 334.668 274.009 334.366 274.246 334.13C274.482 333.894 274.783 333.733 275.111 333.668C275.439 333.603 275.779 333.637 276.088 333.765C276.396 333.893 276.66 334.11 276.846 334.388C277.031 334.666 277.13 334.993 277.13 335.327C277.13 335.549 277.086 335.769 277.001 335.974C276.916 336.179 276.791 336.365 276.634 336.522C276.477 336.679 276.291 336.803 276.086 336.888C275.881 336.972 275.661 337.016 275.439 337.016Z" fill="#06090F"/>
<path d="M279.525 338.502C279.342 338.502 279.162 338.448 279.01 338.346C278.857 338.244 278.739 338.099 278.669 337.93C278.598 337.76 278.58 337.574 278.616 337.394C278.652 337.214 278.74 337.049 278.87 336.919C278.999 336.79 279.164 336.702 279.344 336.666C279.524 336.63 279.71 336.648 279.88 336.719C280.049 336.789 280.194 336.908 280.296 337.06C280.398 337.212 280.452 337.392 280.452 337.575C280.452 337.821 280.354 338.057 280.181 338.23C280.007 338.404 279.771 338.502 279.525 338.502Z" fill="#06090F"/>
<path d="M216.901 385.223C216.654 385.223 216.413 385.149 216.208 385.012C216.003 384.875 215.843 384.68 215.749 384.452C215.655 384.224 215.63 383.973 215.678 383.731C215.726 383.489 215.845 383.267 216.02 383.093C216.194 382.918 216.416 382.799 216.658 382.751C216.9 382.703 217.151 382.727 217.379 382.822C217.607 382.916 217.802 383.076 217.939 383.281C218.076 383.486 218.15 383.727 218.15 383.974C218.15 384.305 218.018 384.623 217.784 384.857C217.55 385.091 217.232 385.223 216.901 385.223Z" fill="#06090F"/>
<path d="M219.135 391.314C218.95 391.314 218.768 391.259 218.614 391.156C218.46 391.054 218.34 390.907 218.269 390.736C218.198 390.565 218.179 390.376 218.215 390.194C218.251 390.013 218.34 389.846 218.471 389.714C218.603 389.583 218.77 389.494 218.951 389.458C219.133 389.422 219.322 389.44 219.493 389.511C219.664 389.583 219.811 389.703 219.914 389.857C220.016 390.011 220.071 390.193 220.071 390.378C220.071 390.626 219.972 390.864 219.797 391.04C219.621 391.215 219.383 391.314 219.135 391.314Z" fill="#06090F"/>
<path d="M259.36 439.602C259.175 439.602 258.994 439.547 258.839 439.444C258.685 439.341 258.565 439.195 258.494 439.023C258.423 438.852 258.405 438.664 258.441 438.482C258.477 438.3 258.567 438.133 258.698 438.002C258.829 437.871 258.996 437.782 259.178 437.746C259.36 437.71 259.548 437.729 259.719 437.8C259.891 437.871 260.037 437.991 260.139 438.145C260.242 438.299 260.297 438.481 260.297 438.666C260.297 438.789 260.273 438.911 260.226 439.024C260.179 439.138 260.11 439.241 260.023 439.328C259.936 439.415 259.832 439.484 259.719 439.531C259.605 439.578 259.483 439.602 259.36 439.602Z" fill="#06090F"/>
<path d="M253.175 451.593C252.99 451.593 252.809 451.538 252.655 451.435C252.5 451.332 252.38 451.186 252.309 451.015C252.238 450.843 252.22 450.655 252.256 450.473C252.292 450.291 252.381 450.124 252.512 449.993C252.643 449.862 252.81 449.773 252.992 449.737C253.174 449.701 253.362 449.719 253.534 449.79C253.705 449.861 253.851 449.981 253.954 450.135C254.057 450.29 254.112 450.471 254.112 450.656C254.112 450.779 254.088 450.901 254.041 451.015C253.994 451.128 253.925 451.232 253.838 451.319C253.751 451.406 253.647 451.475 253.534 451.522C253.42 451.569 253.298 451.593 253.175 451.593Z" fill="#06090F"/>
<path d="M249.704 457.756C249.519 457.756 249.338 457.701 249.183 457.598C249.029 457.495 248.909 457.349 248.838 457.177C248.767 457.006 248.749 456.818 248.785 456.636C248.821 456.454 248.911 456.287 249.042 456.156C249.173 456.025 249.34 455.936 249.522 455.9C249.704 455.864 249.892 455.882 250.063 455.954C250.234 456.025 250.381 456.145 250.484 456.299C250.587 456.453 250.641 456.635 250.641 456.82C250.641 456.943 250.617 457.065 250.57 457.178C250.523 457.292 250.454 457.395 250.367 457.482C250.279 457.569 250.176 457.638 250.063 457.685C249.949 457.732 249.827 457.756 249.704 457.756Z" fill="#06090F"/>
<path d="M247.244 462.568C247.059 462.568 246.877 462.513 246.723 462.41C246.569 462.307 246.449 462.161 246.378 461.989C246.307 461.818 246.289 461.63 246.325 461.448C246.361 461.266 246.451 461.099 246.582 460.968C246.713 460.837 246.88 460.748 247.062 460.712C247.244 460.676 247.432 460.695 247.603 460.766C247.774 460.837 247.921 460.957 248.024 461.111C248.126 461.265 248.181 461.447 248.181 461.632C248.181 461.755 248.157 461.877 248.11 461.99C248.063 462.104 247.993 462.207 247.906 462.294C247.819 462.381 247.716 462.45 247.602 462.497C247.489 462.544 247.367 462.568 247.244 462.568Z" fill="#06090F"/>
<path d="M152.27 442.637C152.085 442.637 151.904 442.582 151.749 442.48C151.595 442.377 151.475 442.23 151.404 442.059C151.333 441.888 151.314 441.7 151.35 441.518C151.386 441.336 151.475 441.169 151.606 441.038C151.737 440.907 151.904 440.817 152.086 440.781C152.268 440.745 152.456 440.763 152.627 440.834C152.799 440.905 152.945 441.025 153.048 441.179C153.151 441.333 153.206 441.515 153.206 441.7C153.206 441.948 153.107 442.186 152.932 442.362C152.756 442.538 152.518 442.637 152.27 442.637Z" fill="#06090F"/>
<path d="M199.698 339.947C199.379 339.947 199.066 339.853 198.801 339.675C198.535 339.498 198.328 339.246 198.205 338.951C198.083 338.656 198.051 338.331 198.113 338.018C198.175 337.705 198.329 337.417 198.554 337.191C198.78 336.965 199.068 336.811 199.381 336.748C199.694 336.686 200.019 336.717 200.314 336.839C200.609 336.962 200.862 337.168 201.039 337.434C201.217 337.699 201.312 338.012 201.312 338.331C201.312 338.543 201.271 338.753 201.19 338.949C201.109 339.145 200.99 339.323 200.84 339.474C200.69 339.624 200.512 339.743 200.316 339.824C200.12 339.905 199.91 339.947 199.698 339.947Z" fill="#06090F"/>
<path d="M90.5571 487.247C90.1392 487.247 89.7307 487.123 89.3832 486.891C89.0358 486.659 88.7649 486.329 88.6049 485.943C88.445 485.557 88.4031 485.132 88.4846 484.722C88.566 484.312 88.7673 483.936 89.0627 483.64C89.3581 483.345 89.7344 483.143 90.1442 483.062C90.554 482.98 90.9788 483.022 91.3649 483.182C91.751 483.341 92.0811 483.612 92.3134 483.959C92.5457 484.307 92.6699 484.715 92.6701 485.133C92.6702 485.411 92.6156 485.685 92.5095 485.942C92.4033 486.198 92.2477 486.431 92.0515 486.628C91.8552 486.824 91.6223 486.98 91.3659 487.086C91.1095 487.192 90.8346 487.247 90.5571 487.247Z" fill="#06090F"/>
<path d="M108.606 506.964C108.188 506.964 107.78 506.84 107.433 506.608C107.086 506.375 106.815 506.045 106.656 505.66C106.496 505.274 106.454 504.849 106.536 504.439C106.617 504.03 106.819 503.654 107.114 503.358C107.41 503.063 107.786 502.862 108.195 502.78C108.605 502.699 109.03 502.741 109.416 502.901C109.802 503.061 110.131 503.331 110.363 503.679C110.595 504.026 110.719 504.434 110.719 504.852C110.719 505.129 110.664 505.404 110.558 505.66C110.452 505.917 110.296 506.15 110.1 506.346C109.904 506.542 109.671 506.697 109.415 506.803C109.158 506.91 108.884 506.964 108.606 506.964Z" fill="#06090F"/>
<path d="M107.341 600.817C106.79 600.817 106.252 600.654 105.794 600.348C105.336 600.042 104.979 599.608 104.768 599.099C104.557 598.59 104.502 598.03 104.61 597.49C104.717 596.95 104.982 596.454 105.372 596.064C105.761 595.675 106.257 595.41 106.797 595.302C107.337 595.195 107.897 595.25 108.406 595.461C108.915 595.672 109.349 596.029 109.655 596.487C109.961 596.945 110.124 597.483 110.124 598.034C110.123 598.772 109.83 599.48 109.308 600.001C108.786 600.523 108.079 600.816 107.341 600.817Z" fill="#06090F"/>
<path d="M148.536 509.137C148.296 509.198 148.042 509.179 147.813 509.082C147.585 508.985 147.395 508.816 147.272 508.6C147.149 508.385 147.101 508.135 147.134 507.889C147.167 507.643 147.28 507.415 147.456 507.239C147.631 507.064 147.86 506.951 148.106 506.918C148.352 506.885 148.601 506.934 148.817 507.057C149.032 507.18 149.202 507.371 149.298 507.599C149.395 507.828 149.414 508.082 149.352 508.322C149.301 508.518 149.199 508.698 149.056 508.841C148.912 508.984 148.733 509.087 148.536 509.137Z" fill="#06090F"/>
<path d="M359.407 198.986C359.217 199.034 359.017 199.032 358.827 198.98C358.638 198.928 358.465 198.827 358.327 198.688C358.188 198.549 358.087 198.376 358.035 198.187C357.983 197.997 357.982 197.797 358.03 197.607C358.079 197.41 358.181 197.23 358.325 197.087C358.468 196.943 358.648 196.841 358.845 196.792C358.99 196.753 359.14 196.744 359.289 196.764C359.437 196.783 359.58 196.833 359.709 196.908C359.838 196.984 359.951 197.084 360.042 197.204C360.132 197.323 360.197 197.459 360.235 197.604C360.272 197.749 360.28 197.9 360.258 198.049C360.237 198.197 360.186 198.339 360.109 198.467C360.032 198.596 359.93 198.708 359.81 198.796C359.689 198.885 359.552 198.95 359.407 198.986Z" fill="#06090F"/>
<path d="M357.509 193.711C357.319 193.759 357.119 193.757 356.93 193.705C356.741 193.652 356.569 193.552 356.43 193.413C356.291 193.275 356.191 193.102 356.138 192.913C356.086 192.724 356.084 192.524 356.132 192.334C356.181 192.137 356.283 191.957 356.427 191.813C356.57 191.669 356.75 191.567 356.947 191.518C357.138 191.47 357.337 191.472 357.527 191.524C357.717 191.576 357.889 191.677 358.028 191.816C358.167 191.955 358.268 192.127 358.32 192.317C358.372 192.507 358.374 192.706 358.326 192.897C358.276 193.094 358.174 193.274 358.03 193.417C357.886 193.56 357.706 193.662 357.509 193.711Z" fill="#06090F"/>
<path d="M355.665 188.508C355.425 188.569 355.171 188.55 354.942 188.453C354.714 188.356 354.524 188.187 354.401 187.971C354.278 187.756 354.23 187.506 354.263 187.26C354.296 187.014 354.409 186.786 354.585 186.61C354.76 186.435 354.989 186.322 355.235 186.289C355.48 186.256 355.73 186.305 355.946 186.428C356.161 186.551 356.33 186.742 356.427 186.97C356.524 187.199 356.543 187.453 356.481 187.693C356.43 187.889 356.328 188.069 356.184 188.212C356.041 188.355 355.862 188.458 355.665 188.508Z" fill="#06090F"/>
<path d="M352.681 180.417C352.441 180.478 352.187 180.459 351.958 180.362C351.73 180.265 351.54 180.096 351.417 179.88C351.294 179.665 351.246 179.415 351.279 179.169C351.312 178.923 351.425 178.695 351.601 178.519C351.776 178.344 352.005 178.231 352.251 178.198C352.496 178.165 352.746 178.214 352.962 178.337C353.177 178.46 353.347 178.651 353.443 178.879C353.54 179.108 353.559 179.362 353.497 179.602C353.446 179.798 353.344 179.978 353.2 180.121C353.057 180.264 352.878 180.367 352.681 180.417Z" fill="#06090F"/>
<path d="M343.404 301.262C343.164 301.323 342.91 301.304 342.681 301.207C342.453 301.11 342.263 300.941 342.14 300.725C342.017 300.51 341.969 300.26 342.002 300.014C342.035 299.768 342.148 299.54 342.324 299.364C342.499 299.189 342.728 299.076 342.974 299.043C343.219 299.01 343.469 299.059 343.685 299.182C343.9 299.305 344.07 299.496 344.166 299.724C344.263 299.953 344.282 300.207 344.22 300.447C344.171 300.644 344.069 300.824 343.925 300.967C343.781 301.111 343.601 301.213 343.404 301.262Z" fill="#06090F"/>
<path d="M397.831 308.131C397.641 308.179 397.441 308.177 397.251 308.125C397.062 308.072 396.889 307.972 396.751 307.833C396.612 307.694 396.511 307.521 396.459 307.332C396.407 307.142 396.406 306.942 396.454 306.752C396.504 306.559 396.604 306.382 396.744 306.24C396.884 306.097 397.06 305.995 397.252 305.942C397.445 305.89 397.648 305.889 397.841 305.94C398.034 305.992 398.21 306.093 398.351 306.234C398.492 306.376 398.594 306.552 398.645 306.745C398.696 306.938 398.695 307.141 398.642 307.334C398.589 307.526 398.486 307.702 398.344 307.842C398.201 307.982 398.024 308.081 397.831 308.131Z" fill="#06090F"/>
<path d="M395.119 309.72C394.879 309.782 394.625 309.763 394.396 309.666C394.168 309.569 393.977 309.4 393.854 309.184C393.731 308.969 393.683 308.719 393.716 308.473C393.749 308.227 393.862 307.999 394.037 307.823C394.213 307.648 394.441 307.535 394.687 307.502C394.933 307.469 395.183 307.517 395.398 307.64C395.614 307.763 395.783 307.954 395.88 308.182C395.977 308.411 395.996 308.665 395.934 308.905C395.885 309.102 395.783 309.282 395.639 309.425C395.496 309.569 395.316 309.671 395.119 309.72Z" fill="#06090F"/>
<path d="M389.749 312.682C389.509 312.744 389.255 312.725 389.026 312.628C388.798 312.531 388.607 312.362 388.484 312.146C388.361 311.931 388.313 311.681 388.346 311.435C388.379 311.189 388.492 310.961 388.667 310.785C388.843 310.61 389.071 310.497 389.317 310.464C389.563 310.431 389.813 310.479 390.028 310.602C390.244 310.725 390.413 310.916 390.51 311.144C390.607 311.373 390.626 311.627 390.564 311.867C390.515 312.064 390.413 312.244 390.269 312.387C390.126 312.531 389.946 312.632 389.749 312.682Z" fill="#06090F"/>
<path d="M415.594 260.996C415.404 261.044 415.204 261.042 415.015 260.99C414.825 260.937 414.652 260.837 414.514 260.698C414.375 260.559 414.275 260.386 414.223 260.197C414.171 260.007 414.169 259.807 414.217 259.617C414.266 259.42 414.368 259.24 414.512 259.097C414.655 258.953 414.835 258.851 415.032 258.802C415.177 258.763 415.327 258.754 415.476 258.774C415.624 258.793 415.767 258.843 415.896 258.918C416.026 258.994 416.139 259.094 416.229 259.214C416.319 259.333 416.384 259.469 416.421 259.614C416.459 259.759 416.467 259.91 416.445 260.058C416.424 260.207 416.373 260.349 416.296 260.477C416.219 260.606 416.117 260.718 415.997 260.806C415.876 260.895 415.74 260.96 415.594 260.996Z" fill="#06090F"/>
<path d="M412.701 260.081C412.461 260.143 412.207 260.124 411.978 260.027C411.75 259.931 411.559 259.762 411.436 259.546C411.313 259.331 411.264 259.081 411.297 258.835C411.33 258.589 411.442 258.361 411.618 258.185C411.793 258.01 412.021 257.896 412.267 257.863C412.513 257.83 412.763 257.878 412.978 258C413.194 258.123 413.364 258.313 413.461 258.541C413.558 258.77 413.577 259.024 413.516 259.264C413.466 259.461 413.363 259.64 413.22 259.784C413.077 259.927 412.898 260.03 412.701 260.081Z" fill="#06090F"/>
<path d="M289.101 482.046C288.272 482.046 287.462 481.799 286.773 481.339C286.084 480.878 285.547 480.223 285.23 479.457C284.914 478.692 284.831 477.849 284.993 477.036C285.155 476.223 285.554 475.477 286.14 474.891C286.727 474.305 287.473 473.906 288.286 473.744C289.099 473.583 289.942 473.666 290.707 473.983C291.473 474.3 292.127 474.838 292.588 475.527C293.048 476.216 293.294 477.026 293.294 477.855C293.294 478.405 293.186 478.951 292.975 479.459C292.764 479.968 292.455 480.43 292.066 480.819C291.676 481.208 291.214 481.517 290.706 481.727C290.197 481.938 289.652 482.046 289.101 482.046Z" fill="#06090F"/>
<path d="M312.94 519.853C312.111 519.853 311.301 519.607 310.612 519.147C309.922 518.686 309.385 518.032 309.068 517.266C308.751 516.5 308.668 515.657 308.83 514.844C308.991 514.031 309.39 513.285 309.977 512.699C310.563 512.112 311.309 511.713 312.122 511.552C312.935 511.39 313.778 511.473 314.544 511.79C315.31 512.107 315.964 512.644 316.425 513.334C316.885 514.023 317.131 514.833 317.131 515.662C317.131 516.774 316.69 517.839 315.904 518.625C315.118 519.411 314.052 519.853 312.94 519.853Z" fill="#06090F"/>
<path d="M102.869 480.215C102.702 480.215 102.539 480.165 102.4 480.073C102.261 479.98 102.152 479.848 102.088 479.693C102.024 479.539 102.008 479.369 102.04 479.205C102.073 479.041 102.153 478.891 102.271 478.772C102.39 478.654 102.54 478.574 102.704 478.541C102.868 478.509 103.038 478.525 103.192 478.589C103.347 478.653 103.479 478.762 103.572 478.9C103.665 479.039 103.714 479.203 103.714 479.37C103.714 479.594 103.625 479.809 103.467 479.967C103.308 480.126 103.093 480.215 102.869 480.215Z" fill="#06090F"/>
<path d="M101.239 479.639C101.151 479.639 101.064 479.613 100.991 479.564C100.917 479.515 100.86 479.445 100.826 479.363C100.792 479.282 100.783 479.192 100.801 479.105C100.818 479.018 100.86 478.939 100.923 478.876C100.985 478.814 101.065 478.771 101.151 478.754C101.238 478.736 101.328 478.745 101.409 478.779C101.491 478.812 101.561 478.87 101.61 478.943C101.659 479.016 101.686 479.103 101.686 479.191C101.686 479.31 101.639 479.424 101.555 479.507C101.471 479.591 101.358 479.639 101.239 479.639Z" fill="#06090F"/>
<path d="M105.667 484.814C105.579 484.814 105.493 484.787 105.419 484.738C105.346 484.689 105.289 484.619 105.255 484.538C105.221 484.456 105.212 484.366 105.23 484.28C105.247 484.193 105.29 484.113 105.352 484.051C105.415 483.988 105.494 483.946 105.581 483.929C105.667 483.911 105.757 483.92 105.839 483.954C105.92 483.987 105.99 484.045 106.039 484.118C106.088 484.191 106.115 484.278 106.115 484.366C106.115 484.485 106.068 484.599 105.984 484.683C105.9 484.767 105.786 484.814 105.667 484.814Z" fill="#06090F"/>
<path d="M108.417 473.167C108.329 473.167 108.242 473.141 108.168 473.092C108.094 473.042 108.037 472.972 108.003 472.89C107.969 472.809 107.96 472.719 107.978 472.632C107.995 472.545 108.038 472.465 108.1 472.402C108.163 472.34 108.243 472.297 108.33 472.28C108.417 472.262 108.507 472.271 108.589 472.305C108.67 472.339 108.74 472.397 108.789 472.47C108.839 472.544 108.865 472.63 108.865 472.719C108.865 472.838 108.817 472.952 108.734 473.035C108.65 473.119 108.536 473.167 108.417 473.167Z" fill="#06090F"/>
<path d="M103.516 493.985C103.427 493.985 103.341 493.959 103.267 493.91C103.193 493.86 103.136 493.79 103.102 493.708C103.068 493.627 103.059 493.537 103.077 493.45C103.094 493.363 103.137 493.283 103.199 493.22C103.262 493.158 103.342 493.115 103.429 493.098C103.516 493.08 103.606 493.089 103.687 493.123C103.769 493.157 103.839 493.215 103.889 493.288C103.938 493.362 103.964 493.448 103.964 493.537C103.964 493.596 103.953 493.654 103.93 493.709C103.908 493.763 103.875 493.812 103.833 493.854C103.792 493.896 103.742 493.929 103.688 493.951C103.633 493.974 103.575 493.985 103.516 493.985Z" fill="#06090F"/>
</svg>
