<svg width="461" height="579" viewBox="0 0 461 579" fill="none" xmlns="http://www.w3.org/2000/svg">
<path d="M348.383 390.87C348.785 395.225 403.378 577.817 403.378 577.817H390.363L332.409 395.225L348.383 390.87Z" fill="#80848F"/>
<path d="M287.235 385.996C286.454 390.303 290.193 577.864 290.193 577.864H276.68L270.883 385.759L287.235 385.996Z" fill="#80848F"/>
<path d="M215.745 393.024C215.319 397.378 162.052 577.864 162.052 577.864H174.996L233.564 395.225L215.745 393.024Z" fill="#80848F"/>
<path d="M441.264 248.081C440.436 250.235 403.402 356.7 382.222 383.653C361.043 410.606 331.936 422.415 297.032 423.74C264.399 424.994 161.957 404.075 161.957 404.075C161.957 404.075 138.861 366.899 137.417 363.255C135.974 359.61 157.082 263.392 166.572 250.992C176.061 238.592 247.479 246.259 266.434 232.96C285.389 219.661 317.359 189.773 335.604 186.129C353.849 182.485 458.373 203.546 441.264 248.081Z" fill="#080E67"/>
<path d="M320.223 140.907C320.223 140.907 303.113 141.83 292.252 162.204C281.39 182.579 255.028 233.315 255.028 233.315L172.748 286.252L192.626 307.975C192.626 307.975 273.084 278.087 276.397 273.355C279.71 268.622 299.327 206.125 299.327 206.125L322.66 142.847" fill="#00CCFD"/>
<path d="M403.544 126.85L411.944 139.653L432.224 151.863L392.824 251.489L385.299 280.62C385.299 280.62 378.199 298.959 364.569 304C350.938 309.04 262.813 287.435 262.813 287.435L284.111 233.291C284.111 233.291 284.111 202.362 285.625 192.187C287.14 182.011 320.388 140.931 320.388 140.931L341.236 135.369L352.216 125.904L403.544 126.85Z" fill="#00CCFD"/>
<path d="M429.29 150.514C429.29 150.514 453.215 161.992 447.582 188.827C443.134 209.959 418.05 267.912 404.798 279.011C383.5 296.853 365.492 278.348 365.492 278.348C365.089 277.188 352.193 242.213 352.193 242.213L393.202 214.762L429.29 150.514Z" fill="#00CCFD"/>
<path d="M102.3 503.441L104.666 550.532C104.666 550.532 57.5746 568.682 57.1486 577.415L148.61 576.231L148.042 502.731L102.3 503.441Z" fill="#080E67"/>
<path d="M132.826 546.202C133.709 546.461 134.464 547.037 134.949 547.818C135.433 548.599 135.613 549.532 135.453 550.437C135.228 551.327 134.672 552.097 133.897 552.59C133.123 553.083 132.19 553.261 131.288 553.088C130.351 552.816 129.548 552.206 129.036 551.374C128.524 550.543 128.34 549.551 128.52 548.592C128.669 548.122 128.911 547.686 129.232 547.311C129.553 546.937 129.945 546.63 130.386 546.409C130.828 546.189 131.309 546.059 131.801 546.027C132.293 545.996 132.787 546.063 133.252 546.225" fill="#E0E0E0"/>
<path d="M148.658 578.172V571.073L60.722 572.753C60.722 572.753 56.6754 574.575 57.1724 577.485L148.658 578.172Z" fill="#80848F"/>
<path d="M72.554 398.538L54.4273 442.032C54.4273 442.032 4.11749 438.222 -5.91364e-05 445.937L83.0846 484.131L114.108 417.493L72.554 398.538Z" fill="#080E67"/>
<path d="M81.7596 450.244C82.4559 450.853 82.9 451.699 83.005 452.618C83.1101 453.538 82.8685 454.463 82.3275 455.213C81.7436 455.923 80.9089 456.38 79.9967 456.49C79.0845 456.6 78.165 456.355 77.429 455.805C76.7026 455.154 76.2427 454.257 76.1379 453.287C76.033 452.317 76.2907 451.343 76.8611 450.551C77.5603 449.887 78.4879 449.517 79.4523 449.517C80.4167 449.517 81.3443 449.887 82.0435 450.551" fill="#E0E0E0"/>
<path d="M82.3985 485.905L85.4038 479.445L5.25358 443.215C5.25358 443.215 0.828438 443.215 0.047523 445.937L82.3985 485.905Z" fill="#80848F"/>
<path d="M408.679 25.5917C408.413 20.1591 406.507 14.9345 403.212 10.6069C399.917 6.27934 395.388 3.052 390.222 1.35045C385.056 -0.351096 379.495 -0.44692 374.273 1.07556C369.052 2.59804 364.414 5.66735 360.972 9.87878C354.535 17.7589 352.264 29.52 343.248 34.2528C337.095 37.5184 329.286 36.4535 323.204 39.8612C310.331 47.126 312.461 69.4413 299.09 75.7596C305.179 83.1486 312.921 89.0014 321.69 92.845C322.999 89.8495 325.143 87.2944 327.866 85.4855C324.837 90.4076 326.564 97.1519 330.398 101.482C334.547 105.54 339.587 108.571 345.117 110.333C358.085 115.444 371.715 119.609 385.654 119.349C399.592 119.089 414.05 113.882 422.688 103.021C424.586 100.055 426.989 97.444 429.787 95.3061C433.076 93.342 437.123 93.2947 440.862 92.4664C446.002 91.2322 450.659 88.4999 454.244 84.6156C457.83 80.7314 460.181 75.8701 461 70.6481C452.292 68.2817 447.937 58.5794 445.997 49.7527C444.057 40.926 443.039 31.2001 436.792 24.6925C434.712 22.5178 432.163 20.8463 429.34 19.8051C426.517 18.7638 423.493 18.3804 420.499 18.6838C417.506 18.9873 414.62 19.9698 412.064 21.5564C409.507 23.143 407.346 25.292 405.744 27.8398" fill="#292D36"/>
<path d="M425.527 49.1848L427.397 41.8252L385.015 23.0359C371.668 18.3031 353.66 28.6443 349.518 42.1565C345.07 57.1832 340.337 75.7595 339.39 87.5916C337.663 111.256 354.535 118.355 354.535 118.355L348.241 146.397L341.141 177.278L402.36 129.761L425.527 49.1848Z" fill="#FFBE9D"/>
<path d="M353.541 62.342C353.347 63.1044 353.462 63.9128 353.861 64.591C354.26 65.2692 354.91 65.7622 355.671 65.9626C356.041 66.0701 356.429 66.1025 356.811 66.0579C357.194 66.0133 357.563 65.8926 357.899 65.703C358.234 65.5134 358.528 65.2586 358.763 64.9537C358.998 64.6488 359.17 64.2998 359.268 63.9275C359.45 63.1657 359.33 62.3631 358.933 61.6881C358.536 61.013 357.893 60.518 357.138 60.3069C356.769 60.196 356.38 60.1611 355.997 60.2041C355.613 60.2472 355.242 60.3674 354.906 60.5575C354.57 60.7476 354.276 61.0037 354.041 61.3104C353.807 61.617 353.637 61.9679 353.541 62.342Z" fill="#263238"/>
<path d="M352.169 53.0184C352.429 53.4917 355.056 52.3558 358.203 53.0184C361.35 53.681 363.315 55.8818 363.741 55.5741C364.167 55.2665 363.741 54.6512 362.889 53.681C361.746 52.4213 360.241 51.5453 358.582 51.1726C356.94 50.7809 355.216 50.9217 353.66 51.5749C352.618 52.0955 352.169 52.8054 352.169 53.0184Z" fill="#263238"/>
<path d="M381.56 69.2519C381.365 70.0143 381.48 70.8227 381.879 71.5009C382.278 72.1791 382.929 72.6721 383.69 72.8725C384.056 72.9856 384.442 73.025 384.824 72.9886C385.206 72.9522 385.577 72.8406 385.915 72.6603C386.254 72.4799 386.554 72.2344 386.797 71.9378C387.04 71.6412 387.223 71.2994 387.334 70.9321C387.522 70.17 387.404 69.3645 387.006 68.6879C386.608 68.0113 385.962 67.5173 385.204 67.3115C384.838 67.1917 384.451 67.1472 384.067 67.1806C383.682 67.2139 383.309 67.3245 382.969 67.5058C382.628 67.687 382.328 67.935 382.086 68.2351C381.844 68.5351 381.665 68.881 381.56 69.2519Z" fill="#263238"/>
<path d="M383.169 60.8512C383.429 61.3245 386.056 60.2123 389.203 60.8512C392.351 61.4901 394.315 63.7146 394.741 63.4069C395.167 63.0993 394.741 62.5077 393.912 61.5375C392.764 60.2673 391.252 59.3829 389.582 59.0054C387.94 58.6137 386.216 58.7546 384.66 59.4077C383.524 60.023 382.932 60.6382 383.169 60.8512Z" fill="#263238"/>
<path d="M366.225 81.6047C364.692 80.6858 363.045 79.9699 361.327 79.475C360.522 79.2147 359.812 78.8597 359.789 78.2918C359.902 77.4059 360.291 76.578 360.901 75.9253L364.711 70.3406C370.059 62.3658 374.176 55.7399 373.821 55.5269C373.466 55.3139 368.899 61.6086 363.551 69.5834L359.812 75.2154C359.083 76.0767 358.673 77.1634 358.653 78.2918C358.705 78.605 358.828 78.9021 359.012 79.1605C359.197 79.4189 359.438 79.6317 359.718 79.7826C360.139 79.9985 360.584 80.1652 361.043 80.2795C362.71 80.9319 364.45 81.377 366.225 81.6047Z" fill="#263238"/>
<path d="M365.776 89.5321C366.555 88.9138 367.479 88.5045 368.46 88.343C369.442 88.1815 370.448 88.2731 371.384 88.6091C372.065 88.8352 372.693 89.1972 373.23 89.6731C373.767 90.149 374.202 90.729 374.508 91.3778C374.813 91.9984 374.917 92.6983 374.807 93.3808C374.697 94.0633 374.377 94.6947 373.893 95.1877C373.243 95.6162 372.482 95.8446 371.704 95.8446C370.925 95.8446 370.164 95.6162 369.515 95.1877C368.145 94.3073 366.963 93.1654 366.036 91.8275C365.732 91.4905 365.499 91.0962 365.35 90.6679C365.279 90.468 365.268 90.2517 365.319 90.0457C365.369 89.8397 365.479 89.653 365.634 89.5084" fill="#EB996E"/>
<path d="M375.005 85.9588C374.508 85.8168 373.703 89.2244 370.272 90.9755C366.841 92.7267 363.173 91.4962 363.054 91.9695C362.936 92.4427 363.717 92.8214 365.255 93.2237C367.253 93.7371 369.368 93.5188 371.219 92.6084C373.005 91.7338 374.38 90.1973 375.052 88.3252C375.431 86.929 375.241 86.0061 375.005 85.9588Z" fill="#263238"/>
<path d="M384.541 51.7643C384.66 52.7108 387.902 53.0421 391.499 54.3437C395.096 55.6452 397.864 57.3727 398.598 56.7101C398.905 56.4024 398.598 55.4795 397.557 54.3437C396.207 52.9245 394.535 51.8528 392.682 51.22C390.834 50.5586 388.858 50.3319 386.908 50.5574C385.299 50.8177 384.494 51.3383 384.541 51.7643Z" fill="#263238"/>
<path d="M354.89 42.2039C355.269 43.0558 357.635 42.8191 360.238 43.3871C362.841 43.955 364.971 44.9962 365.657 44.381C365.965 44.0497 365.776 43.2688 364.971 42.3459C363.873 41.2155 362.451 40.4547 360.901 40.1688C359.354 39.8176 357.736 39.9752 356.286 40.6184C355.198 41.139 354.725 41.8016 354.89 42.2039Z" fill="#263238"/>
<path d="M385.583 24.1483C384.931 29.0519 385.747 34.0387 387.929 38.4783C390.111 42.9179 393.56 46.6108 397.841 49.0902C401.296 51.007 405.744 52.8055 406.194 56.71C406.644 60.6146 402.432 63.5253 400.018 66.8383C398.557 68.902 397.742 71.3526 397.674 73.88C397.607 76.4075 398.291 78.8981 399.639 81.0368C401.177 83.4032 403.52 85.2489 404.94 87.71C405.837 89.3785 406.347 91.2274 406.433 93.1198C406.519 95.0122 406.179 96.8998 405.437 98.6428C403.9 102.12 401.309 105.025 398.03 106.949C406.644 109.315 417.08 106.689 421.576 99.0214C424.273 94.4542 424.463 88.8932 424.818 83.6161C425.624 71.5561 427.533 59.5952 430.521 47.8833C431.238 45.9471 431.313 43.8311 430.734 41.849C429.737 40.0837 428.18 38.7013 426.309 37.9207C414.797 31.6085 402.875 26.0745 390.623 21.3559" fill="#263238"/>
<path d="M391.427 21.8292C388.324 25.9287 384.595 29.5143 380.376 32.4543C378.258 33.9106 375.832 34.8582 373.287 35.2235C370.742 35.5888 368.147 35.3619 365.705 34.5604L369.278 30.6085C360.792 36.4064 351.195 40.379 341.094 42.275C347.436 34.5605 353.967 26.6803 362.628 21.6872C371.289 16.694 382.648 15.1559 391.025 20.4567" fill="#263238"/>
<path d="M365.255 63.7855C365.597 62.7393 365.765 61.6441 365.752 60.5435C365.806 57.4768 364.784 54.488 362.865 52.0954C361.562 50.433 359.883 49.103 357.967 48.2145C355.748 47.1971 353.295 46.7965 350.867 47.055C349.562 47.1622 348.283 47.4819 347.081 48.0016C345.802 48.5091 344.618 49.2291 343.579 50.1313C341.328 51.979 339.733 54.5045 339.034 57.3318C338.335 60.159 338.568 63.1365 339.698 65.8206C340.222 67.0916 340.94 68.2732 341.828 69.3229C342.657 70.3362 343.639 71.2143 344.738 71.926C346.626 73.2007 348.808 73.9719 351.078 74.1665C353.347 74.3612 355.629 73.9728 357.706 73.0382C360.518 71.8161 362.812 69.6474 364.19 66.9092C364.714 65.9332 365.073 64.8779 365.255 63.7855C364.869 64.8032 364.427 65.7986 363.93 66.7672C362.508 69.3681 360.248 71.4114 357.517 72.5649C355.653 73.3647 353.626 73.7133 351.601 73.5824C349.283 73.4351 347.046 72.6757 345.117 71.3817C344.069 70.6946 343.135 69.8483 342.348 68.8733C341.519 67.8693 340.849 66.744 340.361 65.5366C339.297 62.9937 339.08 60.1763 339.74 57.5004C340.401 54.8244 341.904 52.4317 344.029 50.6756C345.015 49.8219 346.134 49.1346 347.341 48.6405C348.486 48.1513 349.699 47.84 350.938 47.7176C353.247 47.4578 355.583 47.8172 357.706 48.7588C359.556 49.5822 361.18 50.8406 362.439 52.4267C364.334 54.7122 365.394 57.575 365.444 60.5435C365.438 61.6268 365.375 62.7089 365.255 63.7855Z" fill="#455A64"/>
<path d="M399.497 72.21C399.843 71.1559 400.019 70.0536 400.018 68.9443C400.044 65.8891 399.026 62.9166 397.131 60.5199C395.813 58.8627 394.128 57.5342 392.209 56.639C389.991 55.6159 387.537 55.215 385.109 55.4795C382.416 55.7372 379.865 56.8104 377.797 58.5558C375.578 60.3851 373.996 62.8704 373.277 65.655C372.59 68.4835 372.814 71.4566 373.916 74.1505C374.955 76.6395 376.71 78.7642 378.957 80.2558C380.845 81.5284 383.027 82.2984 385.297 82.493C387.566 82.6876 389.847 82.3004 391.925 81.368C394.736 80.1459 397.03 77.9772 398.409 75.239C398.932 74.263 399.292 73.2078 399.473 72.1154C399.091 73.1307 398.656 74.1259 398.172 75.097C396.732 77.6926 394.467 79.7331 391.735 80.8947C389.871 81.6945 387.844 82.0431 385.819 81.9123C383.501 81.7649 381.264 81.0055 379.335 79.7115C378.292 79.0183 377.359 78.1728 376.567 77.2031C375.737 76.1991 375.067 75.0738 374.579 73.8665C373.555 71.352 373.354 68.5779 374.004 65.9421C374.655 63.3063 376.123 60.9442 378.2 59.1947C380.158 57.5302 382.576 56.4988 385.133 56.2367C387.434 55.9766 389.762 56.3361 391.877 57.278C393.722 58.1101 395.344 59.367 396.61 60.9459C398.486 63.2425 399.543 66.0983 399.615 69.0627C399.686 71.0268 399.332 72.1863 399.497 72.21Z" fill="#455A64"/>
<path d="M374.437 63.0046C374.437 63.0046 374.295 62.3657 373.609 61.6085C372.672 60.647 371.454 60.0088 370.13 59.7863C368.806 59.5832 367.453 59.8157 366.273 60.4489C365.373 60.9458 364.995 61.4664 365.042 61.5138C365.089 61.5611 365.61 61.2535 366.486 60.9222C367.602 60.4688 368.819 60.3218 370.012 60.4962C371.202 60.7091 372.317 61.2222 373.254 61.987C373.987 62.5787 374.342 63.0756 374.437 63.0046Z" fill="#455A64"/>
<path d="M347.247 70.0328C345.634 68.7929 344.315 67.2128 343.382 65.405C342.45 63.5972 341.927 61.606 341.851 59.5733C341.851 59.5733 341.567 60.2595 341.591 61.4191C341.657 62.9275 342.051 64.4033 342.746 65.7438C343.441 67.0843 344.42 68.2572 345.614 69.1809C346.537 69.8672 347.223 70.1275 347.247 70.0328Z" fill="white"/>
<path d="M381.134 79.1908C379.529 77.9421 378.213 76.3606 377.278 74.555C376.342 72.7494 375.809 70.7626 375.715 68.7313C375.484 69.309 375.402 69.9358 375.478 70.5534C375.531 72.0662 375.928 73.547 376.638 74.884C377.321 76.2357 378.3 77.4164 379.501 78.3389C380.424 79.0251 381.086 79.2618 381.134 79.1908Z" fill="white"/>
<path d="M362.439 115.444C362.439 115.444 367.432 110.711 370.674 111.918C372.172 112.558 373.599 113.351 374.934 114.285C376.258 115.138 377.399 116.248 378.289 117.548C379.179 118.848 379.8 120.313 380.116 121.857L385.086 146.397C385.086 146.397 388.612 171.102 390.079 181.68C391.546 192.258 393.202 214.81 393.202 214.81L356.097 239.042L365.089 165.943C365.089 165.943 356.263 154.774 354.512 148.598C352.76 142.421 351.861 139.771 351.861 139.771L350.962 135.393L347.365 135.63C347.008 135.958 346.559 136.17 346.079 136.235C345.598 136.3 345.109 136.216 344.678 135.994C344.246 135.771 343.894 135.422 343.668 134.993C343.441 134.564 343.353 134.076 343.413 133.595C343.415 133.4 343.491 133.214 343.626 133.074C344.407 132.435 349.306 128.223 349.306 128.223C349.306 128.223 349.519 123.608 351.672 122.141C352.64 121.501 353.714 121.036 354.843 120.769C355.785 120.504 356.773 120.449 357.738 120.609C358.703 120.768 359.621 121.138 360.428 121.691L363.125 123.514L361.847 121.408C361.283 120.466 361.044 119.365 361.168 118.274C361.292 117.183 361.772 116.164 362.534 115.373L362.439 115.444Z" fill="#FFBE9D"/>
<path d="M327.89 300.426C306.709 294.084 285.082 289.338 263.192 286.228C214.61 279.129 152.373 275.153 142.221 276.407C124.26 278.584 115.93 292.594 107.175 303.55C98.419 314.506 46.713 419.504 46.713 419.504L96.4075 439.382L100.265 357.859C100.265 357.859 115.907 325.936 153.58 336.017C153.58 336.017 221.141 378.612 238.652 382.896C256.164 387.179 301.291 404.359 331.936 381.144C362.581 357.93 364.569 304.142 364.569 304.142L327.89 300.426Z" fill="#292D36"/>
<path d="M225.921 376.861L165.909 383.558C162.238 387.734 160.094 393.032 159.827 398.585L156.987 528.525H93.7334L98.4662 362.876C98.4662 362.876 98.1585 326.599 136.826 331.781C175.493 336.964 197.358 356.913 197.358 356.913L225.921 376.861Z" fill="#292D36"/>
<path d="M411.329 281.188C378.283 294.111 343.851 303.163 308.722 308.165C250.863 316.305 221.519 309.75 215.367 327.096C210.752 340.087 205.475 407.554 205.475 407.554C205.475 407.554 300.274 426.911 333.261 406.489C366.249 386.067 381.702 355.895 393.202 326.599C406.596 292.878 411.329 281.188 411.329 281.188Z" fill="#080E67"/>
<path d="M156.94 282.915L238.51 279.697L322.66 293.304L223.484 296.569L156.94 282.915Z" fill="#E0E0E0"/>
<path d="M156.94 282.915L223.389 297.113H223.507L322.518 293.966H322.684V292.736L238.581 279.271L157.035 283.01L238.581 280.241H238.463L322.613 293.942V292.712H322.471L223.46 296.096L156.94 282.915Z" fill="#263238"/>
<path d="M322.66 293.303H223.105L196.743 188.85H124.331L150.575 285.471L223.484 299.977L322.66 297.61V293.303Z" fill="#80848F"/>
<path d="M173.836 237.717C174.688 242 173.245 245.904 170.571 246.449C167.897 246.993 165.057 243.94 164.181 239.657C163.306 235.374 164.797 231.446 167.471 230.901C170.145 230.357 172.984 233.433 173.836 237.717Z" fill="white"/>
</svg>
